<?xml version="1.0" standalone="no"?>
<!DOCTYPE svg PUBLIC "-//W3C//DTD SVG 1.1//EN" "http://www.w3.org/Graphics/SVG/1.1/DTD/svg11.dtd" >
<svg xmlns="http://www.w3.org/2000/svg">
<metadata></metadata>
<defs>
<font id="akzidenz-grotesk_stdLtIt" horiz-adv-x="1193" >
<font-face units-per-em="2048" ascent="1536" descent="-512" />
<missing-glyph horiz-adv-x="528" />
<glyph unicode="&#xfb01;" horiz-adv-x="952" d="M139 0l195 862h-144l25 103h141l68 292q16 67 45 113t62.5 64.5t57.5 25t46 6.5q40 0 104 -22l-22 -101q-45 19 -74 19q-16 0 -28 -4t-27.5 -16.5t-29 -42.5t-23.5 -76l-58 -258h168l-24 -103h-166l-199 -862h-117zM629 0l217 965h121l-217 -965h-121zM913 1262l43 184 h121l-43 -184h-121z" />
<glyph unicode="&#xfb02;" horiz-adv-x="952" d="M139 0l195 862h-144l25 103h141l68 292q16 67 45 113t62.5 64.5t57.5 25t46 6.5q40 0 104 -22l-22 -101q-45 19 -74 19q-16 0 -28 -4t-27.5 -16.5t-29 -42.5t-23.5 -76l-58 -258h168l-24 -103h-166l-199 -862h-117zM629 0l327 1446h121l-327 -1446h-121z" />
<glyph horiz-adv-x="0" />
<glyph horiz-adv-x="682" />
<glyph unicode=" "  horiz-adv-x="528" />
<glyph unicode="&#x09;" horiz-adv-x="528" />
<glyph unicode="&#xa0;" horiz-adv-x="528" />
<glyph unicode="!" horiz-adv-x="518" d="M152 0l51 225h159l-53 -225h-157zM291 463l88 530l104 453h140l-111 -477l-147 -506h-74z" />
<glyph unicode="&#x22;" horiz-adv-x="731" d="M309 928l82 596h170l-190 -596h-62zM662 928l81 596h170l-190 -596h-61z" />
<glyph unicode="#" horiz-adv-x="1345" d="M152 532l26 111h352l62 199h-369l27 116h377l151 494h129l-155 -494h204l150 494h123l-154 -494h324l-27 -116h-332l-63 -199h350l-24 -111h-359l-166 -530h-127l172 530h-207l-172 -530h-118l168 530h-342zM651 643h205l64 199h-205z" />
<glyph unicode="$" horiz-adv-x="1280" d="M172 449l143 10q23 -142 89.5 -221t179.5 -109l133 576l-37 16q-155 68 -223 153t-68 205q0 169 127 272t334 103h41l39 166h117l-43 -178q148 -39 224 -132t101 -235l-133 -10q-34 207 -219 252l-121 -518l25 -13q88 -44 139 -76t94 -74.5t60.5 -93t17.5 -118.5 q0 -190 -137 -309t-355 -119q-16 0 -30 2l-41 -186h-119l45 194q-166 47 -254.5 150t-128.5 293zM526 1092q0 -82 50.5 -138.5t173.5 -113.5l114 493h-41q-135 0 -216 -65.5t-81 -175.5zM700 119h25q149 0 238.5 77.5t89.5 206.5q0 83 -45 137t-158 107l-27 12z" />
<glyph unicode="%" horiz-adv-x="1792" d="M207 877q0 163 53 298t145 212t203 77q125 0 194.5 -95t69.5 -273q0 -120 -31.5 -226t-84.5 -180.5t-125 -118t-150 -43.5q-130 0 -202 91.5t-72 257.5zM311 889q0 -129 43.5 -196.5t128.5 -67.5q50 0 92 21.5t71 56t52 80.5t36.5 92t22.5 93.5t12 82t3 59.5 q0 262 -176 262q-117 0 -201 -142t-84 -341zM506 -35l891 1565l82 -47l-895 -1563zM1102 324q0 163 53 298t145 212t203 77q125 0 194.5 -95t69.5 -273q0 -120 -31.5 -226.5t-84.5 -181t-125 -117.5t-150 -43q-130 0 -202 91.5t-72 257.5zM1206 336q0 -129 44 -196.5 t130 -67.5q58 0 107 32t81.5 83t55.5 116t33 129t10 123q0 264 -178 264q-77 0 -142 -65t-103 -176t-38 -242z" />
<glyph unicode="&#x26;" horiz-adv-x="1187" d="M104 317q0 135 81.5 240.5t248.5 210.5q-24 108 -24 197q0 206 99.5 332t262.5 126q107 0 177.5 -63t70.5 -158q0 -67 -27 -126t-86.5 -117t-134 -110.5t-190.5 -121.5q61 -151 125 -256t145 -184q13 13 39 38.5t33 33t25.5 27t27 31t26.5 34.5t35 47.5t41 60.5l92 -63 q-90 -125 -136 -181.5t-101 -107.5q99 -72 196 -107l-28 -125q-92 32 -137.5 57.5t-128.5 92.5q-120 -83 -200 -113t-175 -30q-157 0 -257 93t-100 242zM244 334q0 -107 64 -170.5t173 -63.5q68 0 123.5 22.5t145.5 86.5q-187 193 -283 455q-223 -143 -223 -330zM537 971 q0 -73 14 -140q150 96 223 155.5t99 103.5t26 100q0 58 -39.5 94.5t-101.5 36.5q-101 0 -161 -94.5t-60 -255.5z" />
<glyph unicode="'" horiz-adv-x="378" d="M309 928l82 596h170l-190 -596h-62z" />
<glyph unicode="(" horiz-adv-x="630" d="M186 416q0 399 205 721q130 202 307 344q85 70 228 155l51 -73q-157 -108 -251.5 -195t-170.5 -201q-225 -335 -225 -766q0 -303 121 -514q42 -72 102 -141l-70 -70q-297 284 -297 740z" />
<glyph unicode=")" horiz-adv-x="630" d="M-162 -252q157 108 252 195.5t170 199.5q225 335 225 766q0 305 -120 514q-42 72 -103 142l70 71q297 -288 297 -741q0 -399 -205 -721q-130 -202 -307 -344q-55 -45 -99.5 -75.5t-128.5 -80.5z" />
<glyph unicode="*" horiz-adv-x="731" d="M279 1270l45 80l198 -109l51 219l95 -22l-52 -221l232 20l14 -86l-239 -29l92 -211l-86 -39l-97 211l-161 -149l-64 72l168 153z" />
<glyph unicode="+" horiz-adv-x="1482" d="M268 541l29 121h487l113 485h123l-113 -485h488l-29 -121h-487l-113 -490h-123l113 490h-488z" />
<glyph unicode="," horiz-adv-x="468" d="M37 -315q77 131 119 315h-72l49 225h162q-24 -166 -64 -288t-108 -252h-86z" />
<glyph unicode="-" horiz-adv-x="698" d="M139 541l29 123h543l-29 -123h-543z" />
<glyph unicode="." horiz-adv-x="425" d="M76 0l47 221h162l-45 -221h-164z" />
<glyph unicode="/" horiz-adv-x="899" d="M-55 0l1067 1446h145l-1065 -1446h-147z" />
<glyph unicode="0" d="M154 510q0 98 16.5 203t48.5 213t85.5 204.5t122 172t163 119.5t203.5 44q209 0 318.5 -134t109.5 -390q0 -120 -22.5 -248t-73 -257.5t-122.5 -231.5t-181.5 -166t-239.5 -64q-204 0 -316 140t-112 395zM283 489q0 -198 80 -300.5t233 -102.5q86 0 160 43t126 114.5 t92.5 160t64 185.5t35 184.5t11.5 162.5q0 207 -78 315.5t-227 108.5q-82 0 -155 -43t-126 -115t-95.5 -162.5t-68 -188.5t-39 -190.5t-13.5 -171.5z" />
<glyph unicode="1" d="M401 1090l25 112q29 -2 66 -2q146 0 226.5 57.5t117.5 186.5h135l-334 -1444h-135l266 1145q-41 -28 -116.5 -45t-155.5 -17q-50 0 -95 7z" />
<glyph unicode="2" d="M82 0l35 156q59 28 135 71q143 81 211 125.5t155 112.5q433 335 433 627q0 123 -73 194.5t-198 71.5q-149 0 -238 -105.5t-89 -279.5q0 -47 6 -84l-137 26q0 275 127.5 414t345.5 139q177 0 284 -99t107 -265q0 -150 -78.5 -293.5t-257.5 -302.5q-95 -84 -165 -136.5 t-187 -125.5q-119 -74 -226 -129q717 10 772 10l-26 -127h-936z" />
<glyph unicode="3" d="M133 436l137 17q6 -184 101 -274.5t252 -90.5q163 0 266.5 91.5t103.5 236.5q0 56 -16 99.5t-41.5 71.5t-64 48t-75 29.5t-83 15t-80.5 6.5t-75.5 2t-59.5 2l26 113q37 -4 80 -4q227 0 344 77t117 228q0 117 -77 186.5t-206 69.5q-135 0 -228 -97t-103 -251l-134 20 q44 222 163 328t321 106q181 0 289 -96.5t108 -259.5q0 -148 -98.5 -249t-259.5 -118q282 -53 282 -329q0 -193 -141.5 -316t-364.5 -123t-348 119t-135 342z" />
<glyph unicode="4" d="M164 403l24 119l850 924h115l-203 -928h195l-25 -115h-192l-92 -403h-129l92 403h-635zM342 520h477l182 733z" />
<glyph unicode="5" d="M131 410l135 24q7 -159 104 -252.5t251 -93.5q180 0 299.5 134t119.5 335q0 145 -80 237.5t-206 92.5q-107 0 -186 -52t-144 -157l-148 24l201 744h770l-28 -119h-650l-137 -500q128 164 340 164q177 0 287 -117t110 -305q0 -73 -18 -150.5t-60.5 -158t-104.5 -143 t-160.5 -102.5t-217.5 -40q-204 0 -334 117.5t-143 317.5z" />
<glyph unicode="6" d="M225 547q0 137 32.5 283.5t90.5 267.5q88 183 223.5 277.5t309.5 94.5q328 0 381 -348l-129 -28q-35 268 -267 268q-192 0 -328.5 -183t-179.5 -497q53 137 166.5 214t253.5 77q178 0 285.5 -117t107.5 -311q0 -160 -65.5 -290.5t-180.5 -205t-255 -74.5 q-209 0 -327 152.5t-118 419.5zM369 430q0 -152 85 -248t220 -96q83 0 153.5 39t116.5 103t72 145.5t26 167.5q0 152 -75 237.5t-209 85.5q-161 0 -275 -127t-114 -307z" />
<glyph unicode="7" d="M272 1061l88 385h887q-14 -121 -47.5 -207t-130.5 -246q-172 -281 -282.5 -515.5t-174.5 -477.5h-155q47 180 166 438q54 119 109 218t157 264q111 180 146 251t55 158h-627l-64 -268h-127z" />
<glyph unicode="8" d="M158 358q0 148 83 260.5t222 153.5q-139 90 -139 270q0 191 125 309.5t327 118.5q186 0 292 -95t106 -261q0 -127 -71 -222.5t-194 -135.5q191 -87 191 -316q0 -200 -142.5 -331.5t-359.5 -131.5q-200 0 -320 104t-120 277zM291 369q0 -132 83.5 -210.5t223.5 -78.5 q161 0 268 97t107 245q0 136 -85.5 213.5t-236.5 77.5q-155 0 -257.5 -97.5t-102.5 -246.5zM449 1051q0 -114 70 -177t196 -63q144 0 238 80.5t94 206.5q0 130 -73 199t-202 69q-148 0 -235.5 -85t-87.5 -230z" />
<glyph unicode="9" d="M158 324l129 28q9 -121 77.5 -194.5t188.5 -73.5q192 0 327 181.5t181 500.5q-49 -136 -164 -214.5t-254 -78.5q-180 0 -287.5 117t-107.5 311q0 244 144.5 406.5t361.5 162.5q207 0 324.5 -149t117.5 -414q0 -139 -33 -287t-90 -270q-88 -184 -223.5 -279.5 t-310.5 -95.5q-163 0 -262.5 89.5t-118.5 259.5zM377 907q0 -154 76 -239.5t211 -85.5q160 0 273.5 127t113.5 307q0 153 -85.5 248.5t-220.5 95.5q-79 0 -144 -32.5t-105.5 -82t-68 -112t-39 -119.5t-11.5 -107z" />
<glyph unicode=":" horiz-adv-x="528" d="M154 0l47 221h164l-46 -221h-165zM319 782l48 224h161l-45 -224h-164z" />
<glyph unicode=";" horiz-adv-x="528" d="M104 -313q77 131 119 315h-71l51 225h162q-26 -170 -66 -292t-109 -248h-86zM319 782l48 224h161l-45 -224h-164z" />
<glyph unicode="&#x3c;" horiz-adv-x="1482" d="M317 541l33 139l1067 489l-33 -141l-935 -426l741 -420l-29 -125z" />
<glyph unicode="=" horiz-adv-x="1482" d="M225 358l29 115h1075l-26 -115h-1078zM309 719l29 117h1075l-29 -117h-1075z" />
<glyph unicode="&#x3e;" horiz-adv-x="1482" d="M197 35l32 141l936 426l-739 422l29 123l841 -483l-30 -138z" />
<glyph unicode="?" horiz-adv-x="1042" d="M264 1014q20 211 143.5 328.5t323.5 117.5q184 0 301 -108t117 -277q0 -172 -105 -281t-286 -124l-70 -310h-125l101 426h34q147 0 232.5 77.5t85.5 209.5q0 123 -77 199t-202 76q-149 0 -240 -96t-98 -263zM467 0l53 229h152l-51 -229h-154z" />
<glyph unicode="@" horiz-adv-x="1835" d="M203 463q0 201 77 385t206.5 317.5t308 213t372.5 79.5q274 0 435 -156t161 -421q0 -182 -69.5 -353t-182 -276t-231.5 -105q-72 0 -116 44.5t-44 119.5q0 5 1 15t1 12q-135 -188 -311 -188q-117 0 -186.5 85.5t-69.5 231.5q0 112 37 220t97 188.5t141 130t165 49.5 q80 0 138 -44.5t102 -150.5l35 148h121l-95 -398q-45 -193 -45 -248q0 -116 74 -116q43 0 98 45q106 88 176 255.5t70 334.5q0 227 -139.5 359t-378.5 132q-170 0 -328 -73.5t-273.5 -196t-185 -291t-69.5 -350.5q0 -283 185 -455t489 -172q385 0 704 301l56 -65 q-81 -73 -132 -111q-285 -213 -620 -213q-347 0 -560.5 198t-213.5 519zM694 475q0 -99 47 -157t127 -58q81 0 155 60.5t119.5 165.5t45.5 225q0 99 -43.5 167t-136.5 68q-80 0 -153 -66t-117 -175t-44 -230z" />
<glyph unicode="A" horiz-adv-x="1298" d="M-2 0l815 1446h164l192 -1446h-139l-59 465h-565l-256 -465h-152zM475 590h483l-86 737z" />
<glyph unicode="B" horiz-adv-x="1345" d="M102 0l332 1446h447q130 0 188.5 -6.5t110.5 -28.5q83 -34 129.5 -112t46.5 -183q0 -147 -86 -241.5t-250 -120.5q131 -14 198.5 -90t67.5 -209q0 -118 -56.5 -219.5t-156.5 -161.5q-68 -40 -147 -57t-205 -17h-619zM260 119h449q63 0 98 1t86.5 10t87.5 26 q77 35 122.5 113.5t45.5 176.5q0 119 -64 183q-35 37 -95 51t-177 14h-422zM422 815h405q88 0 149.5 8t113.5 35q62 31 98.5 99t36.5 151q0 115 -71.5 167t-231.5 52h-381z" />
<glyph unicode="C" horiz-adv-x="1525" d="M199 629q0 134 31 258.5t95 231.5t154 186t215 124.5t271 45.5q226 0 374 -110.5t201 -330.5l-135 -26q-44 176 -164 267t-299 91q-123 0 -226 -46t-171 -120.5t-115.5 -171t-68.5 -195.5t-21 -196q0 -258 129.5 -406.5t355.5 -148.5q186 0 328 109.5t211 306.5l135 -19 q-80 -235 -264.5 -370.5t-425.5 -135.5q-286 0 -448 174.5t-162 481.5z" />
<glyph unicode="D" horiz-adv-x="1400" d="M102 0l332 1446h322q279 0 391 -55q130 -63 199 -192.5t69 -311.5q0 -198 -69.5 -383t-192.5 -311q-104 -106 -238 -149.5t-352 -43.5h-461zM260 119h301q180 0 271 20.5t176 87.5q121 95 197.5 281.5t76.5 384.5q0 181 -82 295q-56 75 -149 107t-258 32h-254z" />
<glyph unicode="E" horiz-adv-x="1208" d="M102 0l332 1446h877l-27 -119h-743l-123 -524h682l-29 -119h-680l-131 -565h846l-27 -119h-977z" />
<glyph unicode="F" horiz-adv-x="1114" d="M102 0l332 1446h866l-30 -119h-733l-115 -514h682l-29 -121h-682l-160 -692h-131z" />
<glyph unicode="G" horiz-adv-x="1503" d="M199 608q0 186 57.5 347.5t158.5 275.5t244.5 179t309.5 65q222 0 374 -114.5t195 -328.5l-135 -22q-30 169 -154.5 262.5t-302.5 93.5q-169 0 -307.5 -96t-217.5 -264.5t-79 -374.5q0 -252 129 -401.5t346 -149.5q207 0 337 133.5t171 398.5h-534l26 121h658l-162 -733 h-125l43 195q-78 -117 -187 -169.5t-260 -52.5q-270 0 -427.5 171t-157.5 464z" />
<glyph unicode="H" horiz-adv-x="1472" d="M102 0l332 1446h131l-143 -623h866l144 623h131l-334 -1446h-131l162 707h-865l-164 -707h-129z" />
<glyph unicode="I" horiz-adv-x="477" d="M102 0l332 1446h133l-334 -1446h-131z" />
<glyph unicode="J" horiz-adv-x="780" d="M6 6l29 127q92 -43 192 -43q69 0 117 21.5t82 71t56 112t44 162.5l228 989h129l-230 -993q-24 -103 -47.5 -173t-58 -132.5t-78 -99t-106 -57t-144.5 -20.5q-101 0 -213 35z" />
<glyph unicode="K" horiz-adv-x="1282" d="M102 0l332 1446h133l-168 -719l871 719h178l-653 -539l401 -907h-143l-361 829l-330 -266l-131 -563h-129z" />
<glyph unicode="L" horiz-adv-x="1083" d="M102 0l332 1446h131l-307 -1327h721l-27 -119h-850z" />
<glyph unicode="M" horiz-adv-x="1593" d="M102 0l332 1446h164l164 -1311l764 1311h157l-333 -1446h-131l294 1200l-704 -1200h-154l-155 1231l-267 -1231h-131z" />
<glyph unicode="N" horiz-adv-x="1374" d="M102 0l332 1446h146l471 -1262l280 1262h133l-334 -1446h-141l-477 1264l-281 -1264h-129z" />
<glyph unicode="O" horiz-adv-x="1550" d="M197 629q0 243 97 436.5t269.5 301.5t388.5 108q152 0 270 -49.5t192.5 -139t112.5 -211.5t38 -270q0 -154 -58.5 -313.5t-152.5 -270.5q-213 -248 -547 -248q-280 0 -445 177.5t-165 478.5zM336 625q0 -242 131.5 -391.5t343.5 -149.5q171 0 313.5 97.5t224 267 t81.5 374.5q0 253 -127 396t-351 143q-270 0 -440 -209q-80 -100 -128 -244t-48 -284z" />
<glyph unicode="P" horiz-adv-x="1243" d="M102 0l332 1446h463q200 0 283 -45q73 -38 116 -122t43 -189q0 -220 -168 -349q-74 -56 -178.5 -81t-263.5 -25h-352l-144 -635h-131zM406 754h317q173 0 259.5 25t143.5 91q76 88 76 226q0 123 -62.5 177t-209.5 54h-393z" />
<glyph unicode="Q" horiz-adv-x="1550" d="M197 631q0 132 31 255.5t94.5 230.5t152.5 187t213 125.5t268 45.5q283 0 446 -175.5t163 -480.5q0 -175 -65.5 -347t-172.5 -279l184 -148l-98 -92l-190 149q-174 -129 -414 -129q-281 0 -446.5 178t-165.5 480zM334 621q0 -241 131.5 -390t343.5 -149q172 0 314 97 t223 267t81 377q0 252 -126 393.5t-351 141.5q-115 0 -215 -41t-172.5 -111.5t-125 -164.5t-78 -201t-25.5 -219z" />
<glyph unicode="R" horiz-adv-x="1288" d="M102 0l332 1446h512q153 0 240 -47q75 -41 120.5 -125.5t45.5 -183.5q0 -166 -111 -285t-301 -146l244 -659h-144l-227 649h-430l-150 -649h-131zM410 766h409q193 0 292 83.5t99 237.5q0 126 -69 183q-40 34 -96 45.5t-179 11.5h-325z" />
<glyph unicode="S" horiz-adv-x="1263" d="M123 451v18l141 29q-2 -20 -2 -45q0 -175 105.5 -271t298.5 -96q183 0 290 84t107 227q0 93 -60 150t-182 108l-166 70q-78 33 -129 62t-98 70t-69.5 95t-22.5 123q0 183 137.5 291.5t370.5 108.5q429 0 489 -392l-129 -30q-42 311 -370 311q-163 0 -262 -72.5 t-99 -193.5q0 -29 6.5 -54t16.5 -44t28.5 -37.5t36 -31t46.5 -28t51 -25.5t59 -26l166 -70q168 -70 240.5 -154t72.5 -214q0 -196 -149 -318.5t-388 -122.5q-255 0 -395.5 123t-140.5 355z" />
<glyph unicode="T" horiz-adv-x="1071" d="M281 1329l24 117h998l-25 -117h-432l-305 -1329h-135l309 1329h-434z" />
<glyph unicode="U" horiz-adv-x="1406" d="M248 391q0 122 47 326l164 729h135l-174 -770q-15 -68 -27 -155.5t-12 -131.5q0 -147 88.5 -226t251.5 -79q66 0 122 14.5t97 38.5t75.5 62.5t57.5 77.5t43.5 94t33 101.5t26.5 109.5l194 864h133l-211 -936q-14 -60 -29 -110t-39.5 -107t-55 -101.5t-75 -87t-98 -70 t-126.5 -44.5t-158 -17q-220 0 -341.5 110t-121.5 308z" />
<glyph unicode="V" horiz-adv-x="1167" d="M328 1446h135l98 -1276l664 1276h151l-774 -1446h-139z" />
<glyph unicode="W" horiz-adv-x="1945" d="M264 1446h137l111 -1266l639 1266h129l113 -1266l612 1266h149l-731 -1446h-131l-110 1272l-635 -1272h-133z" />
<glyph unicode="X" horiz-adv-x="1120" d="M-6 0l610 745l-272 701h141l225 -600l476 600h153l-584 -721l281 -725h-141l-238 629l-495 -629h-156z" />
<glyph unicode="Y" horiz-adv-x="1150" d="M317 1446h142l198 -686l576 686h170l-709 -817l-145 -629h-133l147 645z" />
<glyph unicode="Z" horiz-adv-x="1161" d="M20 0l31 137l1039 1190h-781l29 119h942l-31 -123l-1046 -1204h903l-27 -119h-1059z" />
<glyph unicode="[" horiz-adv-x="555" d="M47 -295l436 1890h348l-22 -104h-223l-389 -1684h223l-25 -102h-348z" />
<glyph unicode="\" horiz-adv-x="706" d="M317 1446h121l156 -1485h-123z" />
<glyph unicode="]" horiz-adv-x="555" d="M-117 -295l25 105h223l389 1685h-223l22 100h349l-437 -1890h-348z" />
<glyph unicode="^" horiz-adv-x="1482" d="M309 592l606 854h140l215 -854h-125l-176 735l-516 -735h-144z" />
<glyph unicode="_" horiz-adv-x="1024" d="M-170 -422l29 121h1065l-29 -121h-1065z" />
<glyph unicode="`" horiz-adv-x="460" d="M84 1399h186l107 -312h-90z" />
<glyph unicode="a" horiz-adv-x="1007" d="M90 219q0 117 78.5 197t210.5 108q108 23 414 64q24 96 24 127q0 170 -211 170q-224 0 -264 -209l-127 8q76 303 408 303q148 0 233.5 -63t85.5 -172q0 -70 -24 -166l-82 -344q-17 -75 -17 -97q0 -51 49 -51q21 0 60 15l-23 -103q-34 -10 -61 -10q-63 0 -96 32t-33 91 q0 14 2 24q-109 -163 -338 -163q-138 0 -213.5 62.5t-75.5 176.5zM221 231q0 -75 49.5 -116t141.5 -41q136 0 218.5 72t108.5 194l33 152q-213 -22 -331 -53.5t-169 -80t-51 -127.5z" />
<glyph unicode="b" horiz-adv-x="1058" d="M92 0l328 1446h121l-144 -625q53 78 135 120t183 42q146 0 228.5 -104.5t82.5 -290.5q0 -74 -14 -151.5t-50 -160.5t-89 -147t-140 -105.5t-194 -41.5q-236 0 -291 196l-41 -178h-115zM311 342q0 -120 63 -191t169 -71q74 0 136.5 34.5t102.5 88.5t67.5 122t39.5 133 t12 124q0 49 -6.5 90.5t-23 80.5t-42 66t-65.5 43.5t-92 16.5q-109 0 -192.5 -75.5t-126 -197t-42.5 -264.5z" />
<glyph unicode="c" horiz-adv-x="1005" d="M137 377q0 171 67 311t184.5 220.5t260.5 80.5q152 0 248 -78.5t109 -214.5l-119 -28q-19 118 -78.5 172.5t-169.5 54.5q-161 0 -270 -146.5t-109 -361.5q0 -145 74.5 -230t200.5 -85q104 0 183 61t122 174l121 -16q-63 -155 -174 -235.5t-263 -80.5q-183 0 -285 106.5 t-102 295.5z" />
<glyph unicode="d" horiz-adv-x="1058" d="M137 373q0 170 62 310t170.5 220t240.5 80q237 0 299 -221l154 684h121l-326 -1446h-121l35 160q-54 -86 -137 -132t-186 -46q-151 0 -231.5 101t-80.5 290zM262 373q0 -136 58.5 -211.5t162.5 -75.5q108 0 195.5 75.5t133.5 192.5t46 246q0 134 -63 208.5t-177 74.5 q-152 0 -254 -146t-102 -364z" />
<glyph unicode="e" horiz-adv-x="1026" d="M137 381q0 126 39.5 239t107.5 194t163 128t202 47q164 0 255 -101.5t91 -285.5q0 -60 -8 -121h-717q-8 -65 -8 -100q0 -140 72.5 -222.5t195.5 -82.5q104 0 187.5 58t124.5 161l114 -25q-55 -137 -171 -216t-269 -79q-177 0 -278 108.5t-101 297.5zM289 575h581 q4 31 4 66q0 117 -62 185.5t-169 68.5q-124 0 -215.5 -83t-138.5 -237z" />
<glyph unicode="f" horiz-adv-x="536" d="M139 0l195 862h-144l25 103h141l68 292q16 67 45 113t62.5 64.5t57.5 25t46 6.5q40 0 104 -22l-22 -101q-45 19 -74 19q-16 0 -28 -4t-27.5 -16.5t-29 -42.5t-23.5 -76l-58 -258h168l-24 -103h-166l-199 -862h-117z" />
<glyph unicode="g" horiz-adv-x="1052" d="M33 -156q0 15 6 68l125 12q-6 -43 -6 -61q0 -103 62.5 -157t182.5 -54q106 0 174.5 46t106.5 144q31 82 78 297q-116 -157 -299 -157q-149 0 -240.5 107t-91.5 280q0 69 16.5 148t54.5 162.5t92 150.5t137.5 110t182.5 43q214 0 291 -201l39 183h121l-205 -912 q-51 -222 -102 -311q-51 -92 -147 -142.5t-220 -50.5q-163 0 -260.5 80.5t-97.5 214.5zM260 393q0 -146 65.5 -229.5t180.5 -83.5q123 0 221 121q51 61 87 190.5t36 220.5q0 131 -62 203t-176 72q-149 0 -250.5 -142.5t-101.5 -351.5z" />
<glyph unicode="h" horiz-adv-x="1054" d="M92 0l328 1446h121l-142 -623q138 166 334 166q125 0 198 -66t73 -178q0 -72 -27 -188l-127 -557h-119l127 555q27 110 27 176q0 74 -47.5 114t-135.5 40q-170 0 -282 -148q-36 -48 -55.5 -98.5t-45.5 -163.5l-108 -475h-119z" />
<glyph unicode="i" horiz-adv-x="415" d="M92 0l217 965h121l-217 -965h-121zM377 1262l43 184h121l-43 -184h-121z" />
<glyph unicode="j" horiz-adv-x="425" d="M-182 -459l26 113q35 -6 74 -6q23 0 40 3.5t30 8.5t23.5 19t17 24.5t14 36.5t12 44.5t13.5 57.5l251 1123h119l-270 -1203q-28 -122 -86 -175.5t-164 -53.5q-43 0 -100 8zM387 1262l41 184h123l-43 -184h-121z" />
<glyph unicode="k" horiz-adv-x="948" d="M92 0l328 1446h121l-207 -911l522 430h158l-475 -385l352 -580h-141l-304 502l-143 -115l-90 -387h-121z" />
<glyph unicode="l" horiz-adv-x="415" d="M92 0l328 1446h121l-328 -1446h-121z" />
<glyph unicode="m" horiz-adv-x="1583" d="M92 0l219 965h119l-33 -144q137 168 299 168q102 0 168.5 -54t81.5 -149q64 97 152.5 150t183.5 53q112 0 182 -67.5t70 -176.5q0 -63 -29 -188l-127 -557h-116l124 555q2 10 9 41.5t10.5 47.5t6.5 41t3 46q0 72 -43 114t-117 42q-142 0 -251 -144q-37 -52 -56 -104 t-45 -164l-108 -475h-119l127 555q26 107 26 160q0 172 -157 172q-72 0 -138 -38.5t-116 -107.5q-35 -49 -53.5 -100t-45.5 -166l-108 -475h-119z" />
<glyph unicode="n" horiz-adv-x="1054" d="M92 0l219 965h119l-33 -144q75 88 155.5 128t180.5 40q125 0 198 -66t73 -178q0 -72 -27 -188l-127 -557h-119l127 555q27 114 27 156q0 86 -43.5 130t-139.5 44q-170 0 -282 -148q-36 -48 -55.5 -98.5t-45.5 -163.5l-108 -475h-119z" />
<glyph unicode="o" horiz-adv-x="1067" d="M137 395q0 166 68 302t187 214t263 78q45 0 90 -9t99.5 -36.5t95 -71.5t68.5 -122.5t28 -180.5q0 -162 -68.5 -299t-187 -216t-258.5 -79q-175 0 -280 114.5t-105 305.5zM260 393q0 -146 72 -230.5t196 -84.5q159 0 271 148t112 364q0 86 -23.5 147.5t-63.5 93.5 t-82.5 46t-90.5 14q-167 0 -279 -142t-112 -356z" />
<glyph unicode="p" horiz-adv-x="1064" d="M-6 -442l317 1407h119l-33 -160q54 86 137.5 132t184.5 46q151 0 232 -101.5t81 -289.5q0 -170 -62.5 -310.5t-171 -220t-239.5 -79.5q-241 0 -301 221l-143 -645h-121zM309 362q0 -132 64 -206t178 -74q152 0 253 145.5t101 364.5q0 135 -58.5 211t-162.5 76 q-81 0 -152.5 -45t-119.5 -117.5t-75.5 -165.5t-27.5 -189z" />
<glyph unicode="q" horiz-adv-x="1058" d="M137 377q0 93 19 181t59 165t97 135t137.5 91.5t175.5 33.5q234 0 290 -197l41 179h113l-319 -1405h-121l137 583q-54 -78 -136.5 -119.5t-183.5 -41.5q-146 0 -227.5 104t-81.5 291zM262 369q0 -135 60.5 -210t169.5 -75q63 0 116.5 24t92 66t68 95t47 114t26 120.5 t8.5 117.5q0 121 -61.5 191.5t-167.5 70.5q-78 0 -141.5 -36.5t-103 -92t-66 -126.5t-37.5 -135.5t-11 -123.5z" />
<glyph unicode="r" horiz-adv-x="595" d="M92 0l217 965h121l-39 -172q51 91 125.5 140.5t157.5 49.5q33 0 43 -2l-29 -123q-20 2 -45 2q-236 0 -319 -366l-111 -494h-121z" />
<glyph unicode="s" horiz-adv-x="925" d="M117 268q0 35 6 64l121 24q-8 -44 -8 -73q0 -103 62.5 -157t182.5 -54q117 0 187.5 50.5t70.5 135.5q0 59 -35 93t-139 77l-159 66q-181 75 -181 225q0 120 102 195t265 75q150 0 232.5 -67t82.5 -187q0 -21 -2 -37l-108 -20q2 18 2 39q0 86 -56 132t-163 46 q-109 0 -173.5 -45.5t-64.5 -122.5q0 -80 88 -117l217 -90q104 -43 155.5 -99.5t51.5 -150.5q0 -133 -105 -214t-278 -81q-170 0 -262 76t-92 217z" />
<glyph unicode="t" horiz-adv-x="555" d="M186 131q0 37 15 102l143 631h-151l22 101h152l67 307h121l-70 -307h168l-20 -101h-168l-133 -575q-23 -108 -23 -125q0 -60 72 -60q29 0 104 17l-22 -98q-68 -29 -139 -29q-65 0 -101.5 36.5t-36.5 100.5z" />
<glyph unicode="u" horiz-adv-x="1054" d="M152 219q0 75 26 189l127 557h119l-127 -555q-27 -117 -27 -177q0 -73 47.5 -113t135.5 -40q173 0 282 145q37 50 56 99.5t45 164.5l108 476h119l-219 -965h-119l33 141q-75 -86 -155.5 -126t-180.5 -40q-124 0 -197 65.5t-73 178.5z" />
<glyph unicode="v" horiz-adv-x="888" d="M186 965h129l68 -828l483 828h140l-588 -965h-139z" />
<glyph unicode="w" horiz-adv-x="1472" d="M188 965h129l68 -828l416 828h129l63 -828l439 828h137l-535 -965h-137l-61 805l-418 -805h-135z" />
<glyph unicode="x" horiz-adv-x="841" d="M-41 0l459 496l-154 469h123l117 -387l346 387h145l-442 -486l156 -479h-123l-119 397l-356 -397h-152z" />
<glyph unicode="y" horiz-adv-x="864" d="M-109 -463l25 107q63 -13 88 -13q60 0 94.5 33t98.5 150l106 190l-100 961h127l71 -820l453 820h139l-702 -1217q-56 -97 -101 -144.5t-87 -62t-111 -14.5q-57 0 -101 10z" />
<glyph unicode="z" horiz-adv-x="886" d="M-10 0l24 106l744 750h-547l22 109h703l-29 -113l-733 -743h627l-27 -109h-784z" />
<glyph unicode="{" horiz-adv-x="548" d="M109 598l24 104q54 2 85.5 9.5t59 30.5t45 65t33.5 113l78 342q26 113 51 177.5t64 103t86.5 50t128.5 11.5h59l-22 -101h-37q-48 0 -75.5 -6t-51 -28t-38 -60t-30.5 -106l-86 -381q-31 -134 -81.5 -194.5t-149.5 -82.5q119 -42 119 -162q0 -47 -15 -112l-82 -353 q-24 -103 -24 -129q0 -49 28 -70.5t93 -21.5h37l-25 -100h-47q-98 0 -153.5 49t-55.5 135q0 58 25 160l79 340q17 73 17 104q0 54 -30.5 79t-108.5 34z" />
<glyph unicode="|" horiz-adv-x="468" d="M37 -293l436 1886h127l-436 -1886h-127z" />
<glyph unicode="}" horiz-adv-x="548" d="M-111 -303l23 100h37q52 0 84 9t53 36.5t32 60t25 95.5l86 381q31 133 81.5 193.5t150.5 82.5q-119 42 -119 162q0 53 14 113l82 352q25 108 25 129q0 49 -28 70.5t-93 21.5h-37l25 101h47q98 0 153.5 -49.5t55.5 -135.5q0 -57 -25 -159l-80 -340q-16 -69 -16 -105 q0 -54 30.5 -79t108.5 -34l-24 -104q-54 -2 -85.5 -9.5t-59.5 -30.5t-45.5 -64.5t-33.5 -112.5l-77 -342q-16 -70 -28.5 -115t-31.5 -87t-40.5 -65.5t-54.5 -42t-75 -25.5t-100 -7h-60z" />
<glyph unicode="~" horiz-adv-x="1482" d="M213 553q103 113 185.5 159t181.5 46q53 0 96.5 -14.5t124.5 -55.5l117 -57q64 -32 92 -41.5t59 -9.5q66 0 123.5 32t161.5 127l80 -86q-204 -204 -367 -204q-49 0 -103 15t-143 64l-63 35q-119 64 -197 64q-63 0 -109.5 -27t-132.5 -113l-24 -24z" />
<glyph unicode="&#xa1;" horiz-adv-x="518" d="M86 0l111 477l149 506h74l-90 -530l-105 -453h-139zM348 1221l53 225h158l-51 -225h-160z" />
<glyph unicode="&#xa2;" horiz-adv-x="999" d="M150 381q0 164 61.5 301.5t181 223t273.5 85.5l43 195h102l-47 -205q116 -23 181 -96t79 -189l-117 -28q-14 95 -54 140.5t-114 63.5l-184 -794h12q100 0 175 59.5t116 169.5l123 -16q-130 -316 -434 -316h-15l-49 -208h-102l51 221q-136 32 -209 134t-73 259zM281 389 q0 -120 42 -189.5t134 -103.5l182 787q-156 -9 -257 -148.5t-101 -345.5z" />
<glyph unicode="&#xa3;" horiz-adv-x="1257" d="M-4 164q0 85 68 138.5t174 53.5q54 0 100.5 -12t112.5 -43q37 88 75 252l13 55h-299l22 105h293l45 282q35 221 164.5 340t339.5 119q160 0 248.5 -88.5t97.5 -259.5l-137 -27q0 264 -246 264q-53 0 -109 -18t-90 -49q-58 -55 -86.5 -128t-60.5 -251l-33 -184h354 l-20 -105h-350q-53 -247 -117 -366l41 -23q123 -67 176.5 -87.5t95.5 -20.5q68 0 119.5 56.5t71.5 154.5l131 -15q-37 -155 -123.5 -237t-212.5 -82q-45 0 -96 12.5t-86 32.5l-185 106q-121 -151 -278 -151q-95 0 -154 48.5t-59 127.5zM104 170q0 -34 27 -55t68 -21 q95 0 194 113q-98 49 -170 49q-54 0 -86.5 -24t-32.5 -62z" />
<glyph unicode="&#xa4;" horiz-adv-x="1366" d="M172 246l160 135q-45 77 -62.5 136t-17.5 132q0 235 162 400l-131 155l92 82l127 -151q160 90 321 90q205 0 340 -119l158 133l78 -96l-156 -135q76 -113 76 -252q0 -113 -42 -220t-120 -192l131 -154l-90 -79l-131 153q-151 -94 -330 -94q-102 0 -178.5 28.5 t-146.5 92.5l-162 -137zM383 655q0 -161 100 -264.5t254 -103.5q192 0 323.5 130t131.5 322q0 164 -103 265.5t-270 101.5q-187 0 -311.5 -128.5t-124.5 -322.5z" />
<glyph unicode="&#xa5;" horiz-adv-x="1173" d="M164 481l24 111h381l13 49l-17 59h-352l27 111h295l-183 635h142l178 -692l549 692h165l-524 -633h266l-26 -111h-330l-63 -73l-11 -35h377l-24 -113h-377l-111 -481h-127l109 481h-381z" />
<glyph unicode="&#xa6;" horiz-adv-x="468" d="M41 -293l186 811h127l-188 -811h-125zM289 784l188 809h125l-186 -809h-127z" />
<glyph unicode="&#xa7;" horiz-adv-x="1146" d="M127 -121l35 137q230 -198 444 -198q105 0 163 47t58 133q0 77 -45.5 129t-167.5 115l-194 100q-191 98 -191 287q0 112 69.5 193.5t197.5 121.5q-111 86 -111 217q0 132 97.5 220.5t244.5 88.5q202 0 373 -129l-27 -129q-103 76 -185 111t-163 35q-95 0 -151 -49.5 t-56 -134.5q0 -60 33 -109.5t90 -75.5l248 -117q117 -55 173 -129t56 -172q0 -121 -69 -202.5t-201 -116.5q104 -88 104 -227q0 -145 -98 -234.5t-258 -89.5q-108 0 -214 38.5t-237 127.5zM356 657q0 -74 42 -126.5t145 -106.5l190 -100q117 1 188.5 63t71.5 160 q0 70 -43.5 124t-138.5 99l-213 102q-109 -8 -175.5 -67t-66.5 -148z" />
<glyph unicode="&#xa8;" horiz-adv-x="460" d="M-45 1192l47 188h127l-43 -188h-131zM332 1192l45 188h129l-45 -188h-129z" />
<glyph unicode="&#xa9;" horiz-adv-x="1705" d="M221 723q0 152 56.5 287.5t154 232t233 153t287.5 56.5q148 0 282.5 -57t232 -153t155 -229.5t57.5 -279.5q0 -205 -96 -374.5t-263.5 -267t-369.5 -97.5q-151 0 -286.5 56.5t-232.5 153.5t-153.5 232.5t-56.5 286.5zM287 721q0 -135 52 -257.5t140.5 -211.5t211.5 -141 t259 -52q181 0 333 88.5t240.5 240.5t88.5 333q0 185 -86.5 337.5t-237.5 240t-334 87.5q-184 0 -337 -88t-241.5 -240.5t-88.5 -336.5zM545 670q0 149 59.5 270.5t163.5 190.5t231 69q281 0 342 -280l-102 -21q-28 107 -90 158t-164 51q-146 0 -236 -122t-90 -320 q0 -149 72.5 -236.5t196.5 -87.5q97 0 172.5 61.5t116.5 176.5l104 -11q-47 -152 -156 -237.5t-254 -85.5q-161 0 -263.5 119t-102.5 305z" />
<glyph unicode="&#xaa;" horiz-adv-x="731" d="M199 907q0 113 84 169t235 75l223 29l7 24q10 41 10 84q0 51 -40 79t-112 28q-89 0 -136 -36t-62 -116l-113 10q61 228 317 228q114 0 181 -48t67 -130q0 -25 -20 -123l-64 -285q-4 -14 -4 -35q0 -37 39 -37q14 0 41 8l-21 -86q-27 -8 -53 -8q-46 0 -72 22t-26 60v23 q-37 -55 -103.5 -86t-148.5 -31q-109 0 -169 47.5t-60 134.5zM309 922q0 -111 146 -111q90 0 156.5 44.5t88.5 133.5l27 111q-241 -23 -329.5 -60.5t-88.5 -117.5z" />
<glyph unicode="&#xab;" horiz-adv-x="784" d="M154 618l24 111l328 236l-35 -158l-207 -148l137 -153l-30 -135zM481 618l25 111l328 236l-35 -158l-209 -148l139 -153l-31 -135z" />
<glyph unicode="&#xac;" horiz-adv-x="1482" d="M201 541l28 121h1160l-152 -662h-125l125 541h-1036z" />
<glyph unicode="&#xad;" horiz-adv-x="698" d="M139 541l29 123h543l-29 -123h-543z" />
<glyph unicode="&#xae;" horiz-adv-x="1705" d="M221 723q0 152 56.5 287.5t154 232t233 153t287.5 56.5q148 0 282.5 -57t232 -153t155 -229.5t57.5 -279.5q0 -205 -96 -374.5t-263.5 -267t-369.5 -97.5q-151 0 -286.5 56.5t-232.5 153.5t-153.5 232.5t-56.5 286.5zM287 721q0 -135 52 -257.5t140.5 -211.5t211.5 -141 t259 -52q181 0 333 88.5t240.5 240.5t88.5 333q0 185 -86.5 337.5t-237.5 240t-334 87.5q-184 0 -337 -88t-241.5 -240.5t-88.5 -336.5zM594 262l172 922h301q54 0 95 -18t63 -43t35.5 -58.5t17.5 -59t4 -49.5q0 -113 -59.5 -185t-167.5 -91l153 -418h-112l-148 406h-170 l-76 -406h-108zM799 764h166q204 0 204 182q0 137 -147 137h-164z" />
<glyph unicode="&#xaf;" horiz-adv-x="460" d="M-84 1161l29 125h600l-29 -125h-600z" />
<glyph unicode="&#xb0;" horiz-adv-x="724" d="M274 1231q0 123 88 212t211 89q126 0 215 -87.5t89 -213.5q0 -125 -89 -213t-215 -88q-125 0 -212 87.5t-87 213.5zM391 1229q0 -77 54 -131t130 -54q75 0 128 54.5t53 132.5q0 77 -53 131.5t-128 54.5q-76 0 -130 -55t-54 -133z" />
<glyph unicode="&#xb1;" horiz-adv-x="1482" d="M193 0l28 119h1098l-29 -119h-1097zM356 715l29 121h487l109 467h123l-109 -467h488l-29 -121h-487l-109 -471h-123l109 471h-488z" />
<glyph unicode="&#xb2;" horiz-adv-x="768" d="M170 543l20 98q268 139 417 295t149 281q0 72 -42.5 114.5t-111.5 42.5q-89 0 -139.5 -61.5t-50.5 -171.5q0 -27 2 -45l-99 20q0 157 77.5 250.5t217.5 93.5q114 0 180 -62.5t66 -168.5q0 -194 -197 -367q-166 -146 -315 -229q401 4 426 4l-18 -94h-582z" />
<glyph unicode="&#xb3;" horiz-adv-x="768" d="M190 817l107 10q5 -106 58.5 -161.5t152.5 -55.5q92 0 151.5 52.5t59.5 132.5q0 46 -22 85t-58 56q-36 18 -72 23t-149 8l22 92q20 -2 49 -2q135 0 207 47t72 133q0 66 -45 106.5t-117 40.5q-80 0 -131.5 -53t-64.5 -151l-105 14q29 138 103 205t200 67q115 0 184.5 -62 t69.5 -165q0 -93 -62.5 -155.5t-164.5 -71.5q182 -36 182 -209q0 -122 -89.5 -198.5t-231.5 -76.5q-138 0 -217.5 75t-88.5 214z" />
<glyph unicode="&#xb4;" horiz-adv-x="460" d="M37 1092l190 307h197l-293 -307h-94z" />
<glyph unicode="&#xb5;" horiz-adv-x="1054" d="M8 -442l318 1407h116l-118 -519q-29 -128 -29 -186q0 -86 48 -135t132 -49q73 0 140.5 38.5t119.5 106.5q32 43 52.5 91.5t48.5 172.5l110 480h115l-176 -785q-6 -24 -6 -45q0 -51 49 -51q23 0 59 14l-22 -102q-47 -12 -72 -12q-127 0 -127 110q0 29 6 56 q-74 -94 -147 -134.5t-170 -40.5q-150 0 -209 115l-117 -532h-121z" />
<glyph unicode="&#xb6;" horiz-adv-x="1316" d="M324 1018q0 100 45 189.5t125 148.5q70 52 149 71t225 19h453l-21 -90h-67l-391 -1698h-94l391 1698h-322l-391 -1698h-94l235 1020q-115 35 -179 124.5t-64 215.5z" />
<glyph unicode="&#xb7;" horiz-adv-x="382" d="M139 483l49 222h164l-47 -222h-166z" />
<glyph unicode="&#xb8;" horiz-adv-x="460" d="M78 -389l26 51q18 -2 41 -2q48 0 76.5 23t28.5 63t-27 59.5t-86 22.5l125 172h68l-66 -92q57 -3 88 -35t31 -88q0 -77 -66 -128.5t-165 -51.5q-22 0 -74 6z" />
<glyph unicode="&#xb9;" horiz-adv-x="768" d="M340 1202l20 86q20 -2 46 -2q100 0 155.5 38t81.5 126h98l-215 -907h-100l168 696q-74 -41 -188 -41q-12 0 -66 4z" />
<glyph unicode="&#xba;" horiz-adv-x="808" d="M244 1036q0 188 115 316.5t284 128.5q136 0 215.5 -83.5t79.5 -232.5q0 -121 -53 -223t-144 -161.5t-200 -59.5q-135 0 -216 85.5t-81 229.5zM350 1036q0 -106 53 -167.5t144 -61.5q118 0 201 107.5t83 259.5q0 102 -52.5 162.5t-141.5 60.5q-123 0 -205 -103t-82 -258z " />
<glyph unicode="&#xbb;" horiz-adv-x="784" d="M131 371l35 157l209 148l-139 153l30 136l217 -248l-24 -111zM459 371l35 157l206 148l-137 153l31 136l217 -248l-25 -111z" />
<glyph unicode="&#xbc;" horiz-adv-x="1792" d="M313 1202l21 86q20 -2 45 -2q100 0 155.5 38t81.5 126h99l-215 -907h-101l168 696q-74 -41 -188 -41q-12 0 -66 4zM498 -37l891 1565l81 -47l-895 -1563zM1036 248l19 82l547 575h100l-125 -573h135l-20 -86h-136l-55 -246h-100l57 248h-422zM1182 338h295l104 428z" />
<glyph unicode="&#xbd;" horiz-adv-x="1792" d="M307 1202l21 86q20 -2 45 -2q100 0 155.5 38t81.5 126h99l-215 -907h-101l168 696q-74 -41 -188 -41q-12 0 -66 4zM446 -37l891 1565l84 -47l-897 -1563zM1042 0l21 98q268 139 416.5 294.5t148.5 281.5q0 72 -42 114.5t-111 42.5q-90 0 -140.5 -61.5t-50.5 -171.5 q0 -27 2 -45l-98 20q0 157 77.5 251t217.5 94q114 0 180 -63t66 -169q0 -194 -197 -367q-166 -146 -315 -229q400 4 425 4l-18 -94h-582z" />
<glyph unicode="&#xbe;" horiz-adv-x="1792" d="M190 817l107 10q5 -106 58.5 -161.5t152.5 -55.5q92 0 151.5 52.5t59.5 132.5q0 46 -22 85t-58 56q-36 18 -72 23t-149 8l22 92q20 -2 49 -2q135 0 207 47t72 133q0 66 -45 106.5t-117 40.5q-80 0 -131.5 -53t-64.5 -151l-105 14q29 138 103 205t200 67q115 0 184.5 -62 t69.5 -165q0 -93 -62.5 -155.5t-164.5 -71.5q182 -36 182 -209q0 -122 -89.5 -198.5t-231.5 -76.5q-138 0 -217.5 75t-88.5 214zM539 -35l891 1565l81 -47l-895 -1563zM1053 248l18 82l547 575h100l-125 -573h136l-21 -86h-135l-55 -246h-101l58 248h-422zM1198 338h295 l104 428z" />
<glyph unicode="&#xbf;" horiz-adv-x="1042" d="M90 371q0 172 106 281t287 124l70 309h123l-101 -426h-32q-148 0 -234 -77.5t-86 -210.5q0 -122 78.5 -198.5t202.5 -76.5q149 0 239.5 96.5t96.5 262.5l137 -23q-20 -211 -143.5 -328.5t-323.5 -117.5q-186 0 -303 108t-117 277zM569 1217l52 229h153l-53 -229h-152z " />
<glyph unicode="&#xc0;" horiz-adv-x="1298" d="M-2 0l815 1446h164l192 -1446h-139l-59 465h-565l-256 -465h-152zM475 590h483l-86 737zM737 1833h176l97 -260h-105z" />
<glyph unicode="&#xc1;" horiz-adv-x="1298" d="M-2 0l815 1446h164l192 -1446h-139l-59 465h-565l-256 -465h-152zM475 590h483l-86 737zM774 1573l203 260h211l-311 -260h-103z" />
<glyph unicode="&#xc2;" horiz-adv-x="1298" d="M-2 0l815 1446h164l192 -1446h-139l-59 465h-565l-256 -465h-152zM475 590h483l-86 737zM612 1581l306 256h86l149 -256h-100l-127 129l-207 -129h-107z" />
<glyph unicode="&#xc3;" horiz-adv-x="1298" d="M-2 0l815 1446h164l192 -1446h-139l-59 465h-565l-256 -465h-152zM475 590h483l-86 737zM555 1616q49 106 99 153.5t112 47.5q30 0 64 -15t102 -55q77 -47 108 -47q32 0 58.5 22.5t58.5 79.5l72 -39q-90 -188 -207 -188q-31 0 -65 14t-95 51q-89 54 -121 54 q-31 0 -57 -26t-55 -85z" />
<glyph unicode="&#xc4;" horiz-adv-x="1298" d="M-2 0l815 1446h164l192 -1446h-139l-59 465h-565l-256 -465h-152zM475 590h483l-86 737zM641 1595l45 199h139l-45 -199h-139zM1016 1595l43 199h139l-43 -199h-139z" />
<glyph unicode="&#xc5;" horiz-adv-x="1298" d="M-2 0l815 1446h164l192 -1446h-139l-59 465h-565l-256 -465h-152zM475 590h483l-86 737zM758 1696q0 66 46 112.5t111 46.5q69 0 116.5 -46t47.5 -113q0 -66 -47 -113t-114 -47q-66 0 -113 47t-47 113zM836 1696q0 -37 24.5 -62.5t59.5 -25.5t59.5 25.5t24.5 62.5 t-24.5 63.5t-59.5 26.5t-59.5 -26t-24.5 -64z" />
<glyph unicode="&#xc6;" horiz-adv-x="2066" d="M-41 0l1266 1446h858l-27 -119h-682l-119 -524h658l-27 -119h-659l-133 -565h843l-26 -119h-973l109 477h-502l-414 -477h-172zM651 594h422l174 704z" />
<glyph unicode="&#xc7;" horiz-adv-x="1525" d="M199 629q0 96 19 192.5t57 192.5t101 178.5t145 146t196.5 100t247.5 36.5q264 0 421 -154q59 -56 90.5 -114.5t63.5 -172.5l-135 -26q-49 178 -166.5 268t-296.5 90q-126 0 -230.5 -48t-172 -124.5t-114 -174.5t-66 -194t-19.5 -188q0 -258 129.5 -406.5t355.5 -148.5 q186 0 328 109.5t211 306.5l135 -19q-80 -233 -264 -369.5t-420 -136.5h-27l-43 -59q127 -12 127 -131q0 -82 -69 -134t-178 -52q-21 0 -74 6l24 53q14 -2 35 -2q63 0 96 24t33 68q0 79 -125 88l107 143l-14 5q-247 30 -377.5 204t-130.5 443z" />
<glyph unicode="&#xc8;" horiz-adv-x="1208" d="M102 0l332 1446h877l-27 -119h-743l-123 -524h682l-29 -119h-680l-131 -565h846l-27 -119h-977zM707 1833h176l96 -260h-105z" />
<glyph unicode="&#xc9;" horiz-adv-x="1208" d="M102 0l332 1446h877l-27 -119h-743l-123 -524h682l-29 -119h-680l-131 -565h846l-27 -119h-977zM784 1573l203 260h211l-311 -260h-103z" />
<glyph unicode="&#xca;" horiz-adv-x="1208" d="M102 0l332 1446h877l-27 -119h-743l-123 -524h682l-29 -119h-680l-131 -565h846l-27 -119h-977zM608 1581l305 256h86l150 -256h-100l-127 129l-207 -129h-107z" />
<glyph unicode="&#xcb;" horiz-adv-x="1208" d="M102 0l332 1446h877l-27 -119h-743l-123 -524h682l-29 -119h-680l-131 -565h846l-27 -119h-977zM645 1595l45 199h139l-45 -199h-139zM1020 1595l43 199h139l-43 -199h-139z" />
<glyph unicode="&#xcc;" horiz-adv-x="477" d="M102 0l332 1446h133l-334 -1446h-131zM354 1833h176l97 -260h-105z" />
<glyph unicode="&#xcd;" horiz-adv-x="477" d="M102 0l332 1446h133l-334 -1446h-131zM418 1573l203 260h210l-311 -260h-102z" />
<glyph unicode="&#xce;" horiz-adv-x="477" d="M102 0l332 1446h133l-334 -1446h-131zM246 1581l305 256h86l149 -256h-100l-127 129l-207 -129h-106z" />
<glyph unicode="&#xcf;" horiz-adv-x="477" d="M102 0l332 1446h133l-334 -1446h-131zM270 1595l45 199h140l-45 -199h-140zM645 1595l43 199h139l-43 -199h-139z" />
<glyph unicode="&#xd0;" horiz-adv-x="1400" d="M88 721l25 110h178l143 615h322q273 0 391 -53q127 -58 197.5 -191t70.5 -315q0 -198 -69.5 -383t-192.5 -311q-109 -111 -252 -152t-338 -41h-461l164 721h-178zM260 119h301q72 0 105 0.5t89 6t91 16.5t78.5 32t83.5 53q121 95 197.5 281.5t76.5 384.5q0 181 -82 295 q-56 75 -149 107t-258 32h-254l-115 -496h516l-25 -110h-518z" />
<glyph unicode="&#xd1;" horiz-adv-x="1374" d="M102 0l332 1446h146l471 -1262l280 1262h133l-334 -1446h-141l-477 1264l-281 -1264h-129zM641 1616q49 106 99 153.5t112 47.5q30 0 64 -15t102 -55q77 -47 108 -47q32 0 58.5 22.5t58.5 79.5l72 -39q-90 -188 -207 -188q-31 0 -65 14t-95 51q-89 54 -121 54 q-31 0 -57 -26t-55 -85z" />
<glyph unicode="&#xd2;" horiz-adv-x="1550" d="M197 629q0 243 97 436.5t269.5 301.5t388.5 108q152 0 270 -49.5t192.5 -139t112.5 -211.5t38 -270q0 -154 -58.5 -313.5t-152.5 -270.5q-213 -248 -547 -248q-280 0 -445 177.5t-165 478.5zM336 625q0 -242 131.5 -391.5t343.5 -149.5q171 0 313.5 97.5t224 267 t81.5 374.5q0 253 -127 396t-351 143q-270 0 -440 -209q-80 -100 -128 -244t-48 -284zM799 1833h176l96 -260h-104z" />
<glyph unicode="&#xd3;" horiz-adv-x="1550" d="M197 629q0 243 97 436.5t269.5 301.5t388.5 108q152 0 270 -49.5t192.5 -139t112.5 -211.5t38 -270q0 -154 -58.5 -313.5t-152.5 -270.5q-213 -248 -547 -248q-280 0 -445 177.5t-165 478.5zM336 625q0 -242 131.5 -391.5t343.5 -149.5q171 0 313.5 97.5t224 267 t81.5 374.5q0 253 -127 396t-351 143q-270 0 -440 -209q-80 -100 -128 -244t-48 -284zM856 1573l203 260h211l-312 -260h-102z" />
<glyph unicode="&#xd4;" horiz-adv-x="1550" d="M197 629q0 243 97 436.5t269.5 301.5t388.5 108q152 0 270 -49.5t192.5 -139t112.5 -211.5t38 -270q0 -154 -58.5 -313.5t-152.5 -270.5q-213 -248 -547 -248q-280 0 -445 177.5t-165 478.5zM336 625q0 -242 131.5 -391.5t343.5 -149.5q171 0 313.5 97.5t224 267 t81.5 374.5q0 253 -127 396t-351 143q-270 0 -440 -209q-80 -100 -128 -244t-48 -284zM684 1581l305 256h86l150 -256h-101l-127 129l-206 -129h-107z" />
<glyph unicode="&#xd5;" horiz-adv-x="1550" d="M197 629q0 243 97 436.5t269.5 301.5t388.5 108q152 0 270 -49.5t192.5 -139t112.5 -211.5t38 -270q0 -154 -58.5 -313.5t-152.5 -270.5q-213 -248 -547 -248q-280 0 -445 177.5t-165 478.5zM336 625q0 -242 131.5 -391.5t343.5 -149.5q171 0 313.5 97.5t224 267 t81.5 374.5q0 253 -127 396t-351 143q-270 0 -440 -209q-80 -100 -128 -244t-48 -284zM662 1616q50 106 99.5 153.5t110.5 47.5q30 0 64 -15t102 -55q77 -47 109 -47t58.5 22.5t58.5 79.5l71 -39q-90 -188 -207 -188q-31 0 -64.5 14t-94.5 51q-89 54 -121 54 q-31 0 -57.5 -26t-55.5 -85z" />
<glyph unicode="&#xd6;" horiz-adv-x="1550" d="M197 629q0 243 97 436.5t269.5 301.5t388.5 108q152 0 270 -49.5t192.5 -139t112.5 -211.5t38 -270q0 -154 -58.5 -313.5t-152.5 -270.5q-213 -248 -547 -248q-280 0 -445 177.5t-165 478.5zM336 625q0 -242 131.5 -391.5t343.5 -149.5q171 0 313.5 97.5t224 267 t81.5 374.5q0 253 -127 396t-351 143q-270 0 -440 -209q-80 -100 -128 -244t-48 -284zM725 1595l45 199h139l-45 -199h-139zM1100 1595l43 199h139l-43 -199h-139z" />
<glyph unicode="&#xd7;" horiz-adv-x="1482" d="M289 248l438 358l-307 385l98 78l307 -385l443 360l73 -90l-444 -362l307 -385l-96 -80l-307 387l-439 -356z" />
<glyph unicode="&#xd8;" horiz-adv-x="1550" d="M197 41l133 149q-133 172 -133 439q0 127 30 248.5t92 230t150 190t212.5 129.5t270.5 48q249 0 406 -138l115 131l79 -71l-120 -133l14 -21q60 -82 89.5 -195t29.5 -229q0 -178 -58 -335t-158.5 -269t-241.5 -177t-300 -65q-244 0 -406 140l-122 -136zM336 625 q0 -176 86 -332l856 958q-130 111 -330 111q-175 0 -315 -95t-218.5 -263.5t-78.5 -378.5zM485 207q86 -69 156.5 -95t167.5 -26q175 0 317 96.5t223 267t81 381.5q0 212 -82 336z" />
<glyph unicode="&#xd9;" horiz-adv-x="1406" d="M248 391q0 122 47 326l164 729h135l-174 -770q-15 -68 -27 -155.5t-12 -131.5q0 -147 88.5 -226t251.5 -79q66 0 122 14.5t97 38.5t75.5 62.5t57.5 77.5t43.5 94t33 101.5t26.5 109.5l194 864h133l-211 -936q-14 -60 -29 -110t-39.5 -107t-55 -101.5t-75 -87t-98 -70 t-126.5 -44.5t-158 -17q-220 0 -341.5 110t-121.5 308zM805 1833h176l96 -260h-104z" />
<glyph unicode="&#xda;" horiz-adv-x="1406" d="M248 391q0 122 47 326l164 729h135l-174 -770q-15 -68 -27 -155.5t-12 -131.5q0 -147 88.5 -226t251.5 -79q66 0 122 14.5t97 38.5t75.5 62.5t57.5 77.5t43.5 94t33 101.5t26.5 109.5l194 864h133l-211 -936q-14 -60 -29 -110t-39.5 -107t-55 -101.5t-75 -87t-98 -70 t-126.5 -44.5t-158 -17q-220 0 -341.5 110t-121.5 308zM872 1573l203 260h211l-311 -260h-103z" />
<glyph unicode="&#xdb;" horiz-adv-x="1406" d="M248 391q0 122 47 326l164 729h135l-174 -770q-15 -68 -27 -155.5t-12 -131.5q0 -147 88.5 -226t251.5 -79q66 0 122 14.5t97 38.5t75.5 62.5t57.5 77.5t43.5 94t33 101.5t26.5 109.5l194 864h133l-211 -936q-14 -60 -29 -110t-39.5 -107t-55 -101.5t-75 -87t-98 -70 t-126.5 -44.5t-158 -17q-220 0 -341.5 110t-121.5 308zM717 1581l305 256h86l149 -256h-100l-127 129l-207 -129h-106z" />
<glyph unicode="&#xdc;" horiz-adv-x="1406" d="M248 391q0 122 47 326l164 729h135l-174 -770q-15 -68 -27 -155.5t-12 -131.5q0 -147 88.5 -226t251.5 -79q66 0 122 14.5t97 38.5t75.5 62.5t57.5 77.5t43.5 94t33 101.5t26.5 109.5l194 864h133l-211 -936q-14 -60 -29 -110t-39.5 -107t-55 -101.5t-75 -87t-98 -70 t-126.5 -44.5t-158 -17q-220 0 -341.5 110t-121.5 308zM733 1595l45 199h140l-46 -199h-139zM1108 1595l43 199h139l-43 -199h-139z" />
<glyph unicode="&#xdd;" horiz-adv-x="1150" d="M317 1446h142l198 -686l576 686h170l-709 -817l-145 -629h-133l147 645zM752 1573l202 260h211l-311 -260h-102z" />
<glyph unicode="&#xde;" horiz-adv-x="1243" d="M102 0l332 1446h133l-69 -303h327q197 0 283 -45q75 -40 118.5 -124t43.5 -188q0 -107 -43 -197t-125 -151q-73 -55 -179 -80.5t-264 -25.5h-350l-76 -332h-131zM336 451h315q172 0 260.5 25t145.5 91q76 88 76 226q0 123 -64 177t-205 54h-395z" />
<glyph unicode="&#xdf;" horiz-adv-x="1058" d="M102 0l228 1010q53 236 152 345t284 109q157 0 245.5 -79.5t88.5 -219.5q0 -147 -89 -237t-245 -94q117 -15 183.5 -99.5t66.5 -216.5q0 -114 -38 -226.5t-99 -178.5q-122 -131 -371 -131q-87 0 -166 18l27 113q111 -25 178 -25q148 0 225 74q56 54 89.5 146t33.5 190 q0 48 -8 85t-20 63.5t-35 46.5t-45 32.5t-59 21.5t-67.5 14t-78.5 11l28 129h23q178 0 264 65.5t86 198.5q0 93 -59 146t-162 53q-120 0 -193 -76.5t-110 -240.5l-238 -1047h-119z" />
<glyph unicode="&#xe0;" horiz-adv-x="1007" d="M90 219q0 117 78.5 197t210.5 108q108 23 414 64q24 96 24 127q0 170 -211 170q-224 0 -264 -209l-127 8q76 303 408 303q148 0 233.5 -63t85.5 -172q0 -70 -24 -166l-82 -344q-17 -75 -17 -97q0 -51 49 -51q21 0 60 15l-23 -103q-34 -10 -61 -10q-63 0 -96 32t-33 91 q0 14 2 24q-109 -163 -338 -163q-138 0 -213.5 62.5t-75.5 176.5zM221 231q0 -75 49.5 -116t141.5 -41q136 0 218.5 72t108.5 194l33 152q-213 -22 -331 -53.5t-169 -80t-51 -127.5zM453 1399h186l106 -312h-90z" />
<glyph unicode="&#xe1;" horiz-adv-x="1007" d="M90 219q0 117 78.5 197t210.5 108q108 23 414 64q24 96 24 127q0 170 -211 170q-224 0 -264 -209l-127 8q76 303 408 303q148 0 233.5 -63t85.5 -172q0 -70 -24 -166l-82 -344q-17 -75 -17 -97q0 -51 49 -51q21 0 60 15l-23 -103q-34 -10 -61 -10q-63 0 -96 32t-33 91 q0 14 2 24q-109 -163 -338 -163q-138 0 -213.5 62.5t-75.5 176.5zM221 231q0 -75 49.5 -116t141.5 -41q136 0 218.5 72t108.5 194l33 152q-213 -22 -331 -53.5t-169 -80t-51 -127.5zM571 1092l191 307h196l-292 -307h-95z" />
<glyph unicode="&#xe2;" horiz-adv-x="1007" d="M90 219q0 117 78.5 197t210.5 108q108 23 414 64q24 96 24 127q0 170 -211 170q-224 0 -264 -209l-127 8q76 303 408 303q148 0 233.5 -63t85.5 -172q0 -70 -24 -166l-82 -344q-17 -75 -17 -97q0 -51 49 -51q21 0 60 15l-23 -103q-34 -10 -61 -10q-63 0 -96 32t-33 91 q0 14 2 24q-109 -163 -338 -163q-138 0 -213.5 62.5t-75.5 176.5zM221 231q0 -75 49.5 -116t141.5 -41q136 0 218.5 72t108.5 194l33 152q-213 -22 -331 -53.5t-169 -80t-51 -127.5zM371 1087l301 310h86l155 -310h-92l-133 175l-213 -175h-104z" />
<glyph unicode="&#xe3;" horiz-adv-x="1007" d="M90 219q0 117 78.5 197t210.5 108q108 23 414 64q24 96 24 127q0 170 -211 170q-224 0 -264 -209l-127 8q76 303 408 303q148 0 233.5 -63t85.5 -172q0 -70 -24 -166l-82 -344q-17 -75 -17 -97q0 -51 49 -51q21 0 60 15l-23 -103q-34 -10 -61 -10q-63 0 -96 32t-33 91 q0 14 2 24q-109 -163 -338 -163q-138 0 -213.5 62.5t-75.5 176.5zM221 231q0 -75 49.5 -116t141.5 -41q136 0 218.5 72t108.5 194l33 152q-213 -22 -331 -53.5t-169 -80t-51 -127.5zM362 1176q47 102 94 147t105 45q32 0 62 -13.5t94 -54.5q73 -45 102 -45t53.5 22.5 t55.5 78.5l67 -37q-86 -182 -194 -182q-31 0 -60.5 11t-89.5 50q-79 51 -112 51q-29 0 -54 -24.5t-53 -81.5z" />
<glyph unicode="&#xe4;" horiz-adv-x="1007" d="M90 219q0 117 78.5 197t210.5 108q108 23 414 64q24 96 24 127q0 170 -211 170q-224 0 -264 -209l-127 8q76 303 408 303q148 0 233.5 -63t85.5 -172q0 -70 -24 -166l-82 -344q-17 -75 -17 -97q0 -51 49 -51q21 0 60 15l-23 -103q-34 -10 -61 -10q-63 0 -96 32t-33 91 q0 14 2 24q-109 -163 -338 -163q-138 0 -213.5 62.5t-75.5 176.5zM221 231q0 -75 49.5 -116t141.5 -41q136 0 218.5 72t108.5 194l33 152q-213 -22 -331 -53.5t-169 -80t-51 -127.5zM399 1192l47 188h127l-43 -188h-131zM776 1192l45 188h129l-45 -188h-129z" />
<glyph unicode="&#xe5;" horiz-adv-x="1007" d="M90 219q0 117 78.5 197t210.5 108q108 23 414 64q24 96 24 127q0 170 -211 170q-224 0 -264 -209l-127 8q76 303 408 303q148 0 233.5 -63t85.5 -172q0 -70 -24 -166l-82 -344q-17 -75 -17 -97q0 -51 49 -51q21 0 60 15l-23 -103q-34 -10 -61 -10q-63 0 -96 32t-33 91 q0 14 2 24q-109 -163 -338 -163q-138 0 -213.5 62.5t-75.5 176.5zM221 231q0 -75 49.5 -116t141.5 -41q136 0 218.5 72t108.5 194l33 152q-213 -22 -331 -53.5t-169 -80t-51 -127.5zM512 1257q0 66 46.5 113t111.5 47q69 0 116.5 -46.5t47.5 -113.5q0 -66 -47.5 -112.5 t-114.5 -46.5q-66 0 -113 46.5t-47 112.5zM590 1257q0 -37 24.5 -62.5t59.5 -25.5t59.5 25.5t24.5 62.5t-24.5 64t-59.5 27t-59.5 -26.5t-24.5 -64.5z" />
<glyph unicode="&#xe6;" horiz-adv-x="1642" d="M90 217q0 233 289 307q120 31 414 62q2 10 7.5 34t8.5 37.5t5.5 33t2.5 36.5q0 78 -54 119t-157 41q-116 0 -176.5 -49.5t-83.5 -163.5l-131 10q76 303 408 303q119 0 192.5 -38.5t110.5 -119.5q127 160 340 160q166 0 257 -101.5t91 -285.5q0 -45 -10 -121h-713 q-8 -68 -8 -102q0 -138 72.5 -220.5t195.5 -82.5q106 0 184 56t119 163l119 -25q-47 -134 -166 -214.5t-272 -80.5q-123 0 -205 51t-133 158q-157 -209 -432 -209q-128 0 -201.5 65t-73.5 177zM221 231q0 -73 49.5 -115t135.5 -42q126 0 220 81t122 216l24 121 q-213 -22 -331 -53.5t-169 -80t-51 -127.5zM909 575h576q6 50 6 66q0 117 -62 183.5t-169 66.5q-123 0 -214 -82.5t-137 -233.5z" />
<glyph unicode="&#xe7;" horiz-adv-x="1005" d="M137 377q0 171 67 311t184.5 220.5t260.5 80.5q152 0 248 -78.5t109 -214.5l-119 -28q-19 118 -78.5 172.5t-169.5 54.5q-161 0 -270 -146.5t-109 -361.5q0 -145 74.5 -230t200.5 -85q104 0 183 61t122 174l121 -16q-60 -151 -171 -233.5t-253 -82.5h-19l-47 -67 q56 -3 86.5 -35.5t30.5 -87.5q0 -77 -66 -128.5t-164 -51.5q-28 0 -75 6l26 51q18 -2 41 -2q48 0 76.5 23t28.5 63t-26.5 59.5t-86.5 22.5l111 152q-316 56 -316 397z" />
<glyph unicode="&#xe8;" horiz-adv-x="1026" d="M137 381q0 126 39.5 239t107.5 194t163 128t202 47q164 0 255 -101.5t91 -285.5q0 -60 -8 -121h-717q-8 -65 -8 -100q0 -140 72.5 -222.5t195.5 -82.5q104 0 187.5 58t124.5 161l114 -25q-55 -137 -171 -216t-269 -79q-177 0 -278 108.5t-101 297.5zM289 575h581 q4 31 4 66q0 117 -62 185.5t-169 68.5q-124 0 -215.5 -83t-138.5 -237zM449 1399h186l106 -312h-90z" />
<glyph unicode="&#xe9;" horiz-adv-x="1026" d="M137 381q0 126 39.5 239t107.5 194t163 128t202 47q164 0 255 -101.5t91 -285.5q0 -60 -8 -121h-717q-8 -65 -8 -100q0 -140 72.5 -222.5t195.5 -82.5q104 0 187.5 58t124.5 161l114 -25q-55 -137 -171 -216t-269 -79q-177 0 -278 108.5t-101 297.5zM289 575h581 q4 31 4 66q0 117 -62 185.5t-169 68.5q-124 0 -215.5 -83t-138.5 -237zM553 1092l190 307h197l-293 -307h-94z" />
<glyph unicode="&#xea;" horiz-adv-x="1026" d="M137 381q0 126 39.5 239t107.5 194t163 128t202 47q164 0 255 -101.5t91 -285.5q0 -60 -8 -121h-717q-8 -65 -8 -100q0 -140 72.5 -222.5t195.5 -82.5q104 0 187.5 58t124.5 161l114 -25q-55 -137 -171 -216t-269 -79q-177 0 -278 108.5t-101 297.5zM289 575h581 q4 31 4 66q0 117 -62 185.5t-169 68.5q-124 0 -215.5 -83t-138.5 -237zM377 1087l301 310h86l156 -310h-93l-133 175l-213 -175h-104z" />
<glyph unicode="&#xeb;" horiz-adv-x="1026" d="M137 381q0 126 39.5 239t107.5 194t163 128t202 47q164 0 255 -101.5t91 -285.5q0 -60 -8 -121h-717q-8 -65 -8 -100q0 -140 72.5 -222.5t195.5 -82.5q104 0 187.5 58t124.5 161l114 -25q-55 -137 -171 -216t-269 -79q-177 0 -278 108.5t-101 297.5zM289 575h581 q4 31 4 66q0 117 -62 185.5t-169 68.5q-124 0 -215.5 -83t-138.5 -237zM416 1192l47 188h127l-43 -188h-131zM793 1192l45 188h129l-45 -188h-129z" />
<glyph unicode="&#xec;" horiz-adv-x="415" d="M92 0l217 965h121l-217 -965h-121zM186 1399h187l106 -312h-90z" />
<glyph unicode="&#xed;" horiz-adv-x="415" d="M92 0l217 965h121l-217 -965h-121zM285 1092l190 307h197l-293 -307h-94z" />
<glyph unicode="&#xee;" horiz-adv-x="415" d="M92 0l217 965h121l-217 -965h-121zM94 1087l301 310h86l156 -310h-92l-133 175l-213 -175h-105z" />
<glyph unicode="&#xef;" horiz-adv-x="415" d="M92 0l217 965h121l-217 -965h-121zM152 1192l47 188h127l-43 -188h-131zM528 1192l45 188h129l-45 -188h-129z" />
<glyph unicode="&#xf0;" horiz-adv-x="1067" d="M137 393q0 166 66.5 303.5t183 217t256.5 79.5q83 0 141.5 -28t104.5 -88q-22 87 -64 172.5t-92 144.5l-309 -98l-33 75l287 89q-85 98 -166 159l88 54q114 -94 180 -177l193 60l31 -78l-166 -51q96 -123 148 -290.5t52 -330.5q0 -135 -39 -252.5t-107 -200.5 t-163.5 -130.5t-206.5 -47.5q-175 0 -280 114.5t-105 303.5zM260 397q0 -149 71.5 -234t196.5 -85q104 0 192 68t139.5 185.5t51.5 256.5q0 153 -73.5 232t-196.5 79q-163 0 -272 -143.5t-109 -358.5z" />
<glyph unicode="&#xf1;" horiz-adv-x="1054" d="M92 0l219 965h119l-33 -144q75 88 155.5 128t180.5 40q125 0 198 -66t73 -178q0 -72 -27 -188l-127 -557h-119l127 555q27 114 27 156q0 86 -43.5 130t-139.5 44q-170 0 -282 -148q-36 -48 -55.5 -98.5t-45.5 -163.5l-108 -475h-119zM387 1176q47 102 94 147t105 45 q32 0 61 -13.5t94 -54.5q73 -45 103 -45q29 0 53 22.5t55 78.5l68 -37q-86 -182 -195 -182q-30 0 -59 11t-90 50q-79 51 -113 51q-29 0 -53.5 -24.5t-52.5 -81.5z" />
<glyph unicode="&#xf2;" horiz-adv-x="1067" d="M137 395q0 166 68 302t187 214t263 78q45 0 90 -9t99.5 -36.5t95 -71.5t68.5 -122.5t28 -180.5q0 -162 -68.5 -299t-187 -216t-258.5 -79q-175 0 -280 114.5t-105 305.5zM260 393q0 -146 72 -230.5t196 -84.5q159 0 271 148t112 364q0 86 -23.5 147.5t-63.5 93.5 t-82.5 46t-90.5 14q-167 0 -279 -142t-112 -356zM465 1399h186l107 -312h-90z" />
<glyph unicode="&#xf3;" horiz-adv-x="1067" d="M137 395q0 166 68 302t187 214t263 78q45 0 90 -9t99.5 -36.5t95 -71.5t68.5 -122.5t28 -180.5q0 -162 -68.5 -299t-187 -216t-258.5 -79q-175 0 -280 114.5t-105 305.5zM260 393q0 -146 72 -230.5t196 -84.5q159 0 271 148t112 364q0 86 -23.5 147.5t-63.5 93.5 t-82.5 46t-90.5 14q-167 0 -279 -142t-112 -356zM573 1092l191 307h197l-293 -307h-95z" />
<glyph unicode="&#xf4;" horiz-adv-x="1067" d="M137 395q0 166 68 302t187 214t263 78q45 0 90 -9t99.5 -36.5t95 -71.5t68.5 -122.5t28 -180.5q0 -162 -68.5 -299t-187 -216t-258.5 -79q-175 0 -280 114.5t-105 305.5zM260 393q0 -146 72 -230.5t196 -84.5q159 0 271 148t112 364q0 86 -23.5 147.5t-63.5 93.5 t-82.5 46t-90.5 14q-167 0 -279 -142t-112 -356zM383 1087l301 310h86l156 -310h-92l-134 175l-213 -175h-104z" />
<glyph unicode="&#xf5;" horiz-adv-x="1067" d="M137 395q0 166 68 302t187 214t263 78q45 0 90 -9t99.5 -36.5t95 -71.5t68.5 -122.5t28 -180.5q0 -162 -68.5 -299t-187 -216t-258.5 -79q-175 0 -280 114.5t-105 305.5zM260 393q0 -146 72 -230.5t196 -84.5q159 0 271 148t112 364q0 86 -23.5 147.5t-63.5 93.5 t-82.5 46t-90.5 14q-167 0 -279 -142t-112 -356zM369 1176q48 102 94 147t104 45q32 0 62 -13.5t94 -54.5q73 -45 102 -45t53.5 22.5t55.5 78.5l67 -37q-86 -182 -194 -182q-31 0 -60.5 11t-89.5 50q-79 51 -112 51q-29 0 -54 -24.5t-53 -81.5z" />
<glyph unicode="&#xf6;" horiz-adv-x="1067" d="M137 395q0 166 68 302t187 214t263 78q45 0 90 -9t99.5 -36.5t95 -71.5t68.5 -122.5t28 -180.5q0 -162 -68.5 -299t-187 -216t-258.5 -79q-175 0 -280 114.5t-105 305.5zM260 393q0 -146 72 -230.5t196 -84.5q159 0 271 148t112 364q0 86 -23.5 147.5t-63.5 93.5 t-82.5 46t-90.5 14q-167 0 -279 -142t-112 -356zM416 1192l47 188h127l-43 -188h-131zM793 1192l45 188h129l-45 -188h-129z" />
<glyph unicode="&#xf7;" horiz-adv-x="1482" d="M225 541l27 118h1159l-29 -118h-1157zM657 217l37 168h170l-37 -168h-170zM791 809l38 168h170l-38 -168h-170z" />
<glyph unicode="&#xf8;" horiz-adv-x="1067" d="M90 37l109 110q-62 106 -62 250q0 164 68.5 300t187.5 214t262 78q184 0 275 -108l104 106l64 -57l-119 -119q57 -96 57 -250q0 -159 -68.5 -294t-187 -213.5t-258.5 -78.5q-83 0 -147.5 25t-122.5 80l-102 -100zM258 397q0 -84 29 -161l561 563q-74 92 -197 92 q-168 0 -280.5 -141t-112.5 -353zM332 162q71 -84 194 -84q105 0 194 66.5t141 180t52 246.5q0 94 -22 150z" />
<glyph unicode="&#xf9;" horiz-adv-x="1054" d="M152 219q0 75 26 189l127 557h119l-127 -555q-27 -117 -27 -177q0 -73 47.5 -113t135.5 -40q173 0 282 145q37 50 56 99.5t45 164.5l108 476h119l-219 -965h-119l33 141q-75 -86 -155.5 -126t-180.5 -40q-124 0 -197 65.5t-73 178.5zM483 1399h187l106 -312h-90z" />
<glyph unicode="&#xfa;" horiz-adv-x="1054" d="M152 219q0 75 26 189l127 557h119l-127 -555q-27 -117 -27 -177q0 -73 47.5 -113t135.5 -40q173 0 282 145q37 50 56 99.5t45 164.5l108 476h119l-219 -965h-119l33 141q-75 -86 -155.5 -126t-180.5 -40q-124 0 -197 65.5t-73 178.5zM614 1092l191 307h196l-292 -307h-95 z" />
<glyph unicode="&#xfb;" horiz-adv-x="1054" d="M152 219q0 75 26 189l127 557h119l-127 -555q-27 -117 -27 -177q0 -73 47.5 -113t135.5 -40q173 0 282 145q37 50 56 99.5t45 164.5l108 476h119l-219 -965h-119l33 141q-75 -86 -155.5 -126t-180.5 -40q-124 0 -197 65.5t-73 178.5zM408 1087l301 310h86l155 -310h-92 l-133 175l-213 -175h-104z" />
<glyph unicode="&#xfc;" horiz-adv-x="1054" d="M152 219q0 75 26 189l127 557h119l-127 -555q-27 -117 -27 -177q0 -73 47.5 -113t135.5 -40q173 0 282 145q37 50 56 99.5t45 164.5l108 476h119l-219 -965h-119l33 141q-75 -86 -155.5 -126t-180.5 -40q-124 0 -197 65.5t-73 178.5zM461 1192l47 188h127l-43 -188h-131z M838 1192l45 188h129l-45 -188h-129z" />
<glyph unicode="&#xfd;" horiz-adv-x="864" d="M-109 -463l25 107q63 -13 88 -13q60 0 94.5 33t98.5 150l106 190l-100 961h127l71 -820l453 820h139l-702 -1217q-56 -97 -101 -144.5t-87 -62t-111 -14.5q-57 0 -101 10zM506 1092l190 307h197l-293 -307h-94z" />
<glyph unicode="&#xfe;" horiz-adv-x="1064" d="M-6 -442l426 1888h119l-146 -647q116 184 326 184q151 0 232 -101.5t81 -289.5q0 -170 -62.5 -310.5t-171 -220t-239.5 -79.5q-241 0 -301 221l-143 -645h-121zM309 362q0 -132 64 -206t178 -74q152 0 253 145.5t101 364.5q0 135 -58.5 211t-162.5 76 q-110 0 -197.5 -76.5t-132.5 -193.5t-45 -247z" />
<glyph unicode="&#xff;" horiz-adv-x="864" d="M-109 -463l25 107q63 -13 88 -13q60 0 94.5 33t98.5 150l106 190l-100 961h127l71 -820l453 820h139l-702 -1217q-56 -97 -101 -144.5t-87 -62t-111 -14.5q-57 0 -101 10zM379 1192l47 188h127l-43 -188h-131zM756 1192l45 188h129l-45 -188h-129z" />
<glyph unicode="&#x152;" horiz-adv-x="2134" d="M199 600q0 180 57 340t154.5 275t234 182t289.5 67q166 0 274 -74t162 -235l66 291h780l-18 -119h-662l-117 -524h639l-33 -119h-636l-121 -565h786l-33 -119h-913l53 211q-91 -116 -200 -172.5t-246 -56.5q-229 0 -372.5 172t-143.5 446zM342 610q0 -236 107 -375 t290 -139q124 0 227.5 68t172 184t106 269t37.5 325q0 192 -96 300t-266 108q-163 0 -295.5 -96.5t-207.5 -266t-75 -377.5z" />
<glyph unicode="&#x153;" horiz-adv-x="1748" d="M137 395q0 253 145.5 423.5t360.5 170.5q120 0 206 -59.5t126 -169.5q143 229 397 229q166 0 257 -101.5t91 -285.5q0 -45 -10 -121h-713q-8 -65 -8 -98q0 -140 72.5 -222.5t195.5 -82.5q106 0 184.5 56t119.5 161l118 -25q-58 -138 -172.5 -216.5t-267.5 -78.5 q-130 0 -217.5 58.5t-122.5 169.5q-79 -117 -173.5 -172.5t-213.5 -55.5q-172 0 -273.5 114t-101.5 306zM262 395q0 -149 69 -234t189 -85q101 0 186 67t134 183.5t49 255.5q0 140 -67 224.5t-183 84.5q-161 0 -269 -142t-108 -354zM1016 575h575q4 33 4 66q0 118 -61 185 t-168 67q-123 0 -214.5 -83t-135.5 -235z" />
<glyph unicode="&#x178;" horiz-adv-x="1150" d="M317 1446h142l198 -686l576 686h170l-709 -817l-145 -629h-133l147 645zM600 1595l45 199h139l-45 -199h-139zM975 1595l43 199h139l-43 -199h-139z" />
<glyph unicode="&#x2c6;" horiz-adv-x="460" d="M-41 1087l301 310h86l156 -310h-92l-134 175l-213 -175h-104z" />
<glyph unicode="&#x2dc;" horiz-adv-x="460" d="M-86 1176q47 102 94 147t105 45q32 0 61 -13.5t94 -54.5q73 -45 103 -45q29 0 53 22.5t55 78.5l68 -37q-86 -182 -195 -182q-30 0 -59 11t-90 50q-79 51 -113 51q-29 0 -53.5 -24.5t-52.5 -81.5z" />
<glyph unicode="&#x2000;" horiz-adv-x="927" />
<glyph unicode="&#x2001;" horiz-adv-x="1855" />
<glyph unicode="&#x2002;" horiz-adv-x="927" />
<glyph unicode="&#x2003;" horiz-adv-x="1855" />
<glyph unicode="&#x2004;" horiz-adv-x="618" />
<glyph unicode="&#x2005;" horiz-adv-x="463" />
<glyph unicode="&#x2006;" horiz-adv-x="309" />
<glyph unicode="&#x2007;" horiz-adv-x="309" />
<glyph unicode="&#x2008;" horiz-adv-x="231" />
<glyph unicode="&#x2009;" horiz-adv-x="371" />
<glyph unicode="&#x200a;" horiz-adv-x="103" />
<glyph unicode="&#x2010;" horiz-adv-x="698" d="M139 541l29 123h543l-29 -123h-543z" />
<glyph unicode="&#x2011;" horiz-adv-x="698" d="M139 541l29 123h543l-29 -123h-543z" />
<glyph unicode="&#x2012;" horiz-adv-x="698" d="M139 541l29 123h543l-29 -123h-543z" />
<glyph unicode="&#x2013;" horiz-adv-x="1157" d="M127 539l29 123h1001l-29 -123h-1001z" />
<glyph unicode="&#x2014;" horiz-adv-x="1726" d="M139 541l29 123h1571l-29 -123h-1571z" />
<glyph unicode="&#x2018;" horiz-adv-x="376" d="M262 905q29 165 72 289.5t119 251.5h94q-104 -173 -129 -316h71l-49 -225h-178z" />
<glyph unicode="&#x2019;" horiz-adv-x="376" d="M272 905q41 68 78.5 157t50.5 159h-73l51 225h176q-29 -175 -72.5 -297t-117.5 -244h-93z" />
<glyph unicode="&#x201a;" horiz-adv-x="376" d="M12 -315q41 66 78.5 155t50.5 160h-71l49 225h178q-29 -168 -72.5 -291.5t-118.5 -248.5h-94z" />
<glyph unicode="&#x201c;" horiz-adv-x="677" d="M262 905q29 165 72 289.5t119 251.5h94q-100 -166 -129 -316h71l-49 -225h-178zM563 905q30 171 72 292t119 249h94q-44 -72 -81 -158.5t-48 -157.5h72l-50 -225h-178z" />
<glyph unicode="&#x201d;" horiz-adv-x="677" d="M272 905q41 68 78.5 157t50.5 159h-73l51 225h176q-29 -173 -72.5 -295.5t-117.5 -245.5h-93zM573 905q100 169 129 316h-73l49 225h178q-28 -167 -73 -295.5t-117 -245.5h-93z" />
<glyph unicode="&#x201e;" horiz-adv-x="677" d="M6 -315q42 73 79.5 159.5t49.5 155.5h-74l52 225h178q-33 -175 -75 -294t-116 -246h-94zM307 -315q95 164 129 315h-74l52 225h176q-31 -175 -71.5 -291.5t-117.5 -248.5h-94z" />
<glyph unicode="&#x2022;" horiz-adv-x="681" d="M166 504l100 446h449l-99 -446h-450z" />
<glyph unicode="&#x2026;" horiz-adv-x="2048" d="M182 0l39 168h170l-39 -168h-170zM866 0l37 168h170l-39 -168h-168zM1550 0l39 168h168l-37 -168h-170z" />
<glyph unicode="&#x202f;" horiz-adv-x="371" />
<glyph unicode="&#x2039;" horiz-adv-x="458" d="M154 618l24 111l328 236l-35 -158l-207 -148l137 -153l-30 -135z" />
<glyph unicode="&#x203a;" horiz-adv-x="458" d="M131 371l35 157l209 148l-139 153l30 136l217 -248l-24 -111z" />
<glyph unicode="&#x205f;" horiz-adv-x="463" />
<glyph unicode="&#x20ac;" horiz-adv-x="1339" d="M135 557l66 111h104q2 29 17 120h-148l62 107h104q69 268 244.5 411.5t433.5 143.5q151 0 251.5 -49.5t190.5 -171.5l-67 -125q-71 124 -160.5 177.5t-226.5 53.5q-201 0 -337.5 -115t-189.5 -323h809l-59 -109h-770q-16 -61 -19 -122h723l-63 -107h-662 q8 -220 128 -347.5t319 -127.5q115 0 215 39t200 135l-45 -182q-103 -63 -187 -86t-191 -23q-260 0 -411 155t-163 435h-168z" />
<glyph unicode="&#x2122;" horiz-adv-x="1402" d="M272 1366l19 80h526l-18 -80h-215l-140 -600h-88l138 600h-222zM723 766l158 680h123l47 -565l305 565h125l-158 -680h-84l139 584l-319 -584h-74l-49 582l-129 -582h-84z" />
<glyph unicode="&#x25fc;" horiz-adv-x="962" d="M0 0v963h963v-963h-963z" />
</font>
</defs>
</svg>
