<?xml version="1.0" standalone="no"?>
<!DOCTYPE svg PUBLIC "-//W3C//DTD SVG 1.1//EN" "http://www.w3.org/Graphics/SVG/1.1/DTD/svg11.dtd" >
<svg xmlns="http://www.w3.org/2000/svg">
<metadata></metadata>
<defs>
<font id="akzidenz-grotesk_stdMdIt" horiz-adv-x="1150" >
<font-face units-per-em="2048" ascent="1536" descent="-512" />
<missing-glyph horiz-adv-x="589" />
<glyph unicode="&#xfb01;" horiz-adv-x="1153" d="M76 0l196 842h-163l41 176h161l54 205q16 62 48.5 107.5t66.5 68t79.5 35.5t74.5 15.5t66 2.5q92 0 174 -12l-49 -207q-10 1 -38.5 3.5t-41.5 2.5q-84 0 -116.5 -33t-57.5 -137l-12 -51h217l-39 -176h-217l-194 -842h-250zM680 0l238 1018h245l-235 -1018h-248zM958 1198 l56 248h248l-58 -248h-246z" />
<glyph unicode="&#xfb02;" horiz-adv-x="1153" d="M76 0l196 842h-163l41 176h161l54 205q16 62 48.5 107.5t66.5 68t79.5 35.5t74.5 15.5t66 2.5q92 0 174 -12l-49 -207q-10 1 -38.5 3.5t-41.5 2.5q-84 0 -116.5 -33t-57.5 -137l-12 -51h217l-39 -176h-217l-194 -842h-250zM678 0l334 1446h248l-334 -1446h-248z" />
<glyph horiz-adv-x="0" />
<glyph horiz-adv-x="682" />
<glyph unicode=" "  horiz-adv-x="589" />
<glyph unicode="&#x09;" horiz-adv-x="589" />
<glyph unicode="&#xa0;" horiz-adv-x="589" />
<glyph unicode="!" horiz-adv-x="598" d="M106 0l64 276h270l-63 -276h-271zM270 403l37 424l144 619h262l-142 -608l-174 -435h-127z" />
<glyph unicode="&#x22;" horiz-adv-x="679" d="M268 909l78 615h197l-205 -615h-70zM606 909l78 615h197l-203 -615h-72z" />
<glyph unicode="#" horiz-adv-x="1366" d="M113 438l37 205h276l59 193h-258l37 204h285l127 406h213l-129 -406h201l126 406h207l-127 -406h242l-37 -204h-268l-62 -193h252l-37 -205h-276l-141 -438h-205l139 438h-203l-137 -438h-209l137 438h-249zM633 643h205l59 193h-203z" />
<glyph unicode="$" horiz-adv-x="1193" d="M47 369l240 71q31 -186 194 -229l97 418q-349 123 -349 379q0 78 34.5 150.5t97 130.5t159 93t211.5 35h29l39 166h131l-41 -178q51 -6 103.5 -26.5t105.5 -56.5t98 -94.5t70 -131.5l-234 -82q-23 73 -64 116.5t-128 63.5l-84 -375q140 -52 208 -97q175 -115 175 -306 q0 -117 -66.5 -218t-187 -162t-267.5 -61h-59l-43 -188h-133l47 203q-173 42 -262 137.5t-121 241.5zM489 1030q0 -34 12 -61t35.5 -46t44 -30t52.5 -25l76 334q-107 0 -163.5 -55t-56.5 -117zM610 199h19q107 0 175 59t68 141q0 66 -38.5 105t-135.5 80z" />
<glyph unicode="%" horiz-adv-x="1792" d="M160 803q0 77 13 157t44 162t75.5 145.5t115 103.5t155.5 40q42 0 79.5 -8.5t77.5 -32t68.5 -60.5t47 -99t18.5 -142q0 -50 -7.5 -108.5t-24 -128t-47.5 -132t-73 -115t-105.5 -83.5t-139.5 -31q-78 0 -136.5 27t-93 74t-51 105t-16.5 126zM336 797q0 -170 119 -170 q54 0 96 43.5t65 103t38 130.5t19.5 118t4.5 74q0 88 -35 124.5t-84 36.5q-57 0 -103 -53t-70.5 -131t-37 -150.5t-12.5 -125.5zM436 47l953 1370l102 -69l-952 -1373zM1071 313q0 63 9.5 130t29 136t52.5 130t76 109t104 76t133 28q42 0 79.5 -8.5t77 -32t68 -60.5t47 -99 t18.5 -142q0 -50 -7.5 -108.5t-24 -128t-47.5 -132t-73 -115t-105.5 -83.5t-139.5 -31q-78 0 -136.5 27t-93 74t-51 104.5t-16.5 125.5zM1247 307q0 -170 119 -170q54 0 96 43.5t65 103t38 130.5t19.5 118t4.5 74q0 88 -35.5 125t-83.5 37q-57 0 -103 -53.5t-70.5 -131.5 t-37 -150.5t-12.5 -125.5z" />
<glyph unicode="&#x26;" horiz-adv-x="1366" d="M57 348q0 40 7.5 76t19 65t32.5 57.5t40 49t49.5 43t53.5 37.5t59.5 34t59 30t61.5 29t59 28q-45 126 -45 223q0 104 49.5 181t124.5 113t164 36q130 0 217.5 -76.5t87.5 -200.5q0 -51 -21 -98t-49.5 -81.5t-75.5 -70t-81.5 -56.5t-84.5 -48q13 -24 37 -68t32.5 -59.5 t25.5 -46t25.5 -44t22 -34.5t25.5 -37t27 -33q44 53 68.5 103.5t48.5 128.5h241q-23 -102 -87.5 -217t-129.5 -174q44 -35 111 -35q21 0 80 6l-51 -213q-44 -6 -89 -6q-158 0 -243 100q-201 -121 -418 -121q-198 0 -325.5 102t-127.5 277zM307 358q0 -11 2.5 -27t15 -45.5 t34 -52t65 -40t102.5 -17.5q79 0 138 20.5t127 59.5q-31 42 -61 87.5t-55 89t-41.5 72.5t-36 66t-22.5 43q-25 -15 -76.5 -41t-76.5 -42t-56.5 -42t-45 -58t-13.5 -73zM676 1028q0 -27 6 -50t27 -77q174 79 174 182q0 14 -5 31t-25.5 36t-53.5 19q-20 0 -39.5 -6.5 t-39.5 -21t-32 -44t-12 -69.5z" />
<glyph unicode="'" horiz-adv-x="339" d="M268 909l78 615h197l-205 -615h-70z" />
<glyph unicode="(" horiz-adv-x="667" d="M125 457q0 399 231 723q140 193 328 336q95 72 197 131l84 -117q-137 -99 -224 -181t-157 -180q-111 -156 -170.5 -346t-59.5 -389q0 -385 207 -653l-117 -111q-75 86 -135 172q-184 278 -184 615z" />
<glyph unicode=")" horiz-adv-x="667" d="M-182 -219q138 100 224.5 181.5t154.5 176.5q112 156 171.5 345.5t59.5 389.5q0 382 -207 656l115 110q78 -89 135 -174q184 -278 184 -612q0 -402 -231 -723q-133 -188 -328 -336q-83 -64 -194 -131z" />
<glyph unicode="*" horiz-adv-x="774" d="M215 1212l88 154l182 -102l50 204l172 -43l-50 -204l215 20l17 -176l-209 -21l80 -186l-160 -74l-88 195l-156 -137l-114 137l149 131z" />
<glyph unicode="+" horiz-adv-x="1482" d="M223 535l49 217h414l100 436h267l-103 -436h420l-49 -217h-420l-100 -445h-266l100 445h-412z" />
<glyph unicode="," horiz-adv-x="512" d="M-25 -289l31 129q20 1 36.5 6.5t28 12t21.5 20.5t15.5 23.5t12 30t9 31.5t8.5 36h-110l63 276h270l-77 -337q-13 -57 -36.5 -100t-49.5 -67t-58.5 -39t-58.5 -19.5t-55 -4.5q-34 0 -50 2z" />
<glyph unicode="-" horiz-adv-x="761" d="M113 508l53 231h592l-53 -231h-592z" />
<glyph unicode="." horiz-adv-x="512" d="M27 0l63 276h270l-63 -276h-270z" />
<glyph unicode="/" horiz-adv-x="854" d="M-84 0l903 1446h258l-899 -1446h-262z" />
<glyph unicode="0" d="M111 479q0 118 20 241.5t67.5 250.5t116.5 225t177 160.5t239 62.5q101 0 179.5 -30.5t127 -80.5t80 -119.5t44 -141t12.5 -152.5q0 -64 -8 -138.5t-28.5 -165t-51 -175.5t-79 -166.5t-109.5 -142t-146.5 -97.5t-184.5 -37q-102 0 -181.5 28.5t-130.5 76t-84 114 t-46.5 137t-13.5 150.5zM367 463q0 -141 53.5 -203.5t140.5 -62.5q81 0 146.5 60.5t103.5 148t63.5 194.5t34.5 190t9 144q0 120 -47.5 193t-145.5 73q-77 0 -141 -57.5t-103 -143t-66 -190t-37.5 -192t-10.5 -154.5z" />
<glyph unicode="1" d="M293 973l39 166h18q131 0 241 68.5t152 185.5h226l-322 -1393h-252l180 780q23 104 23 131q0 42 -25.5 52t-93.5 10h-186z" />
<glyph unicode="2" d="M25 0l49 207q161 114 316.5 239.5t232.5 194.5q124 115 182.5 204.5t58.5 168.5q0 75 -50 125.5t-126 50.5q-23 0 -46.5 -4.5t-59.5 -23t-64.5 -49t-54.5 -88.5t-37 -136l-250 39q23 226 172 358.5t367 132.5q183 0 302.5 -103.5t119.5 -285.5q0 -123 -68 -239 q-60 -101 -220.5 -246.5t-410.5 -319.5h578l-51 -225h-940z" />
<glyph unicode="3" d="M23 424l264 25v-19q0 -41 13 -80.5t39 -75t73.5 -57.5t109.5 -22q63 0 112 20.5t76 49.5t44.5 64.5t22.5 61.5t5 45q0 201 -254 201q-15 0 -43 -4l50 213q66 -4 90 -4q60 0 107 15t74 37t44 50t23 50.5t6 41.5q0 77 -57 121.5t-134 44.5q-58 0 -101.5 -18t-70 -49.5 t-41.5 -61t-26 -67.5l-248 55q124 358 506 358q77 0 150.5 -20.5t137.5 -61t103 -110t39 -158.5q0 -69 -26 -128.5t-65.5 -98t-86.5 -66.5t-87.5 -40t-70.5 -13q18 -3 28.5 -5t39 -11.5t47.5 -21t45 -34t42 -50t27.5 -70t11.5 -93.5q0 -86 -28.5 -161t-79 -130t-117.5 -95 t-145 -59.5t-160 -19.5q-113 0 -199.5 30t-137 74t-84.5 108t-47.5 118.5t-20.5 120.5z" />
<glyph unicode="4" d="M70 330l57 239l719 824h303l-197 -852h183l-50 -211h-182l-76 -330h-249l75 330h-583zM354 541h348l146 575z" />
<glyph unicode="5" d="M84 354l266 21q8 -53 36.5 -91t64.5 -53.5t61.5 -21.5t44.5 -6q60 0 110 22t82 56.5t54 78t31.5 84t9.5 76.5q0 93 -59.5 159t-149.5 66q-50 0 -89.5 -13.5t-68 -40.5t-44 -47.5t-34.5 -53.5h-223l244 803h764l-51 -226h-551l-90 -284q114 67 237 67q117 0 204 -58 t130 -152t43 -208q0 -167 -80 -296.5t-208.5 -196t-280.5 -66.5q-23 0 -45 1t-67.5 9t-83.5 21.5t-84 42t-79.5 67.5t-59.5 101t-34 139z" />
<glyph unicode="6" d="M143 504q0 65 10 141.5t33.5 166t58.5 174t89 164t120 139t156.5 95t194.5 35.5q46 0 91 -7.5t98 -29.5t96.5 -56.5t81 -93.5t57.5 -136l-277 -45q-1 10 -4 22t-14.5 36t-28 42.5t-48 32.5t-71.5 14q-62 0 -112 -26.5t-89.5 -80t-69 -118t-60.5 -156.5q39 35 112 64.5 t168 29.5q92 0 167.5 -35.5t123.5 -94.5t74 -133.5t26 -155.5q0 -90 -34 -180t-97.5 -166.5t-167.5 -124.5t-231 -48q-91 0 -164 26t-119 64.5t-80.5 93.5t-51 103t-26 104t-11 84t-1.5 56zM403 440q0 -100 56 -175t162 -75q75 0 133 45.5t86 110t28 131.5q0 93 -56.5 159 t-160.5 66q-106 0 -177 -78t-71 -184z" />
<glyph unicode="7" d="M203 1167l53 226h979l-57 -242q-80 -73 -166 -174q-52 -62 -91.5 -115t-103 -155.5t-121.5 -221.5q-130 -266 -176 -485h-315q26 110 77.5 235t108.5 229t92.5 163.5t59.5 95.5q88 135 193 261.5t165 182.5h-698z" />
<glyph unicode="8" d="M78 389q0 31 4.5 64.5t23.5 84.5t50 93t91.5 82.5t141.5 60.5q-60 30 -101.5 109t-41.5 153q0 47 14 96t49 101.5t87 93t135 66.5t186 26q113 0 201 -27.5t137 -67t81 -92t42 -95t10 -82.5q0 -114 -76.5 -214t-198.5 -128l32 -17q106 -66 139 -186q12 -45 12 -96 q0 -192 -138.5 -316.5t-382.5 -124.5q-69 0 -137 14t-133.5 46.5t-115.5 79.5t-80.5 118.5t-30.5 157.5zM342 410q0 -14 3 -33t17.5 -52t38.5 -58t72.5 -44.5t112.5 -19.5t113.5 20t77 53t41 68.5t13.5 71.5q0 94 -73.5 151.5t-175.5 57.5q-96 0 -168 -61.5t-72 -153.5z M506 1020q0 -49 19 -85.5t43.5 -54t57 -28t50.5 -12.5t33 -2q48 0 96 17.5t86.5 63t38.5 111.5q0 86 -63.5 132t-147.5 46q-62 0 -107.5 -22.5t-66.5 -55.5t-30 -60.5t-9 -49.5z" />
<glyph unicode="9" d="M57 297l275 45q4 -51 47 -99t119 -48q58 0 107.5 26t83 63t62.5 92.5t45.5 99.5t32.5 99q-111 -94 -280 -94q-120 0 -211 61t-135.5 155t-44.5 204q0 71 21 143t65 139.5t105 120t149 84t190 31.5t182 -33t130 -86t82.5 -124.5t45.5 -143t13 -147.5q0 -65 -10 -141.5 t-34 -165.5t-59 -173.5t-89 -163.5t-120 -138t-156.5 -94.5t-193.5 -35.5q-166 0 -280.5 91.5t-141.5 232.5zM416 915q0 -92 57 -158.5t160 -66.5q108 0 178 80.5t70 185.5q0 101 -58 173.5t-159 72.5q-58 0 -106 -25.5t-78.5 -67.5t-47 -92t-16.5 -102z" />
<glyph unicode=":" horiz-adv-x="598" d="M111 0l65 276h270l-63 -276h-272zM289 766l63 276h271l-64 -276h-270z" />
<glyph unicode=";" horiz-adv-x="598" d="M61 -287l29 127q28 0 49.5 10.5t33.5 23t23 38.5t15.5 41.5t11.5 46.5h-112l65 276h270l-69 -303q-10 -41 -20 -72.5t-31 -69.5t-47 -63t-68.5 -42t-95.5 -17q-14 0 -54 4zM289 766l63 276h271l-64 -276h-270z" />
<glyph unicode="&#x3c;" horiz-adv-x="1482" d="M274 532l62 252l1057 453l-66 -272l-784 -326l633 -340l-60 -250z" />
<glyph unicode="=" horiz-adv-x="1482" d="M174 305l51 215h1075l-49 -215h-1077zM270 719l52 217h1075l-49 -217h-1078z" />
<glyph unicode="&#x3e;" horiz-adv-x="1482" d="M219 35l66 272l784 326l-633 340l60 250l841 -484l-61 -252z" />
<glyph unicode="?" horiz-adv-x="1110" d="M236 1018q8 36 18 69t31.5 80t48 85.5t69 79t94 68.5t124 46t157.5 18q102 0 185.5 -24.5t136 -63.5t88.5 -89.5t50.5 -99.5t14.5 -97q0 -56 -14.5 -102t-46.5 -86.5t-65.5 -71.5t-88.5 -72l-98 -74q-17 -12 -43.5 -32t-36.5 -27t-28 -22.5t-24 -22.5t-18 -22.5 t-16.5 -27t-13.5 -32.5t-15 -42.5t-14 -52.5h-227l24 109q25 110 60 161.5t145 137.5l92 72q6 5 29 22t30.5 24t25.5 23t25.5 27t17.5 28t14 34.5t4 37.5q0 72 -58.5 118t-148.5 46q-58 0 -107 -19t-79 -49t-47.5 -56t-26.5 -50q-16 -42 -23 -108zM393 0l64 276h270 l-63 -276h-271z" />
<glyph unicode="@" horiz-adv-x="1808" d="M156 444q0 205 78 392.5t209 323t313 216t381 80.5q268 0 426.5 -154t158.5 -415q0 -188 -72 -362t-191 -280t-247 -106q-71 0 -117.5 38.5t-52.5 117.5q-129 -156 -280 -156q-121 0 -192.5 87t-71.5 235q0 155 64.5 295t171.5 223.5t227 83.5q75 0 127.5 -36t89.5 -112 l28 105h162l-78 -318q-69 -286 -69 -350q0 -32 12.5 -49.5t34.5 -17.5q66 0 139.5 97.5t121.5 239.5t48 265q0 198 -125.5 315t-339.5 117q-158 0 -308.5 -71.5t-262 -188.5t-179 -275.5t-67.5 -324.5q0 -263 170.5 -420.5t456.5 -157.5q175 0 358 77t328 222l78 -104 q-125 -110 -204.5 -162t-185.5 -96q-186 -74 -372 -74q-227 0 -401.5 87.5t-270.5 246.5t-96 366zM684 475q0 -82 38.5 -130t104.5 -48q65 0 131 59t110 157t44 200q0 91 -39.5 141.5t-109.5 50.5q-69 0 -134 -61.5t-105 -161.5t-40 -207z" />
<glyph unicode="A" horiz-adv-x="1323" d="M-53 0l829 1446h301l156 -1446h-272l-29 301h-529l-159 -301h-297zM528 528h385l-47 643z" />
<glyph unicode="B" horiz-adv-x="1366" d="M47 0l334 1446h551q87 0 162.5 -18.5t136.5 -55.5t96 -100.5t35 -147.5q0 -34 -6.5 -71t-27 -85.5t-53 -88.5t-90.5 -75t-134 -50q77 -8 137 -56.5t90.5 -117.5t30.5 -144q0 -99 -34.5 -177t-91 -125.5t-134.5 -78.5t-157 -43t-167 -12h-678zM377 238h332q325 0 325 213 q0 46 -15 82.5t-39.5 58.5t-57.5 37t-65.5 20.5t-68.5 5.5h-315zM522 870h293q125 0 201 55t76 150q0 41 -12.5 68.5t-32 43.5t-58 24t-74.5 10t-96 2h-215z" />
<glyph unicode="C" horiz-adv-x="1429" d="M156 578q0 77 11.5 158.5t38.5 170.5t67 170t102 155t138 127.5t180.5 85.5t224.5 32q110 0 199.5 -24.5t145.5 -61.5t97.5 -88.5t61.5 -96.5t32 -96t14 -75.5t2 -45.5l-264 -45q0 301 -288 301q-92 0 -171.5 -38.5t-135.5 -102.5t-96 -146t-59.5 -170.5t-19.5 -175.5 q0 -57 9 -109.5t32.5 -106.5t60 -93.5t96 -64.5t134.5 -25q22 0 39 1t50 7t59.5 17t62.5 33t66 53t62 80t58 110l238 -98q-76 -213 -246 -330t-401 -117q-93 0 -176 18.5t-162 63t-136 112.5t-91.5 174.5t-34.5 240.5z" />
<glyph unicode="D" horiz-adv-x="1492" d="M47 0l334 1446h393q70 0 119 -2t111.5 -8.5t110 -20t97.5 -36t92 -58t76 -82.5q107 -150 107 -399q0 -88 -15.5 -175.5t-51.5 -179.5t-89.5 -171t-136 -147t-184.5 -110q-137 -57 -359 -57h-604zM375 238h278q118 0 214 35.5t159 94t105 138t60.5 163.5t18.5 173 q0 57 -9 104.5t-24 83t-39.5 63t-49.5 46t-60.5 32t-66 20.5t-73 11t-74 5t-75.5 1h-139z" />
<glyph unicode="E" horiz-adv-x="1280" d="M47 0l334 1446h983l-53 -236h-717l-80 -342h682l-53 -231h-682l-92 -404h823l-53 -233h-1092z" />
<glyph unicode="F" horiz-adv-x="1179" d="M47 0l334 1446h983l-55 -238h-711l-90 -385h666l-54 -229h-665l-138 -594h-270z" />
<glyph unicode="G" horiz-adv-x="1536" d="M154 561q0 93 21.5 193.5t63 204t110 196t156 165t208.5 115t260 42.5q100 0 186 -21.5t164 -69.5t135.5 -133.5t85.5 -203.5l-268 -60q-7 37 -15 63.5t-29.5 66t-51.5 65t-83.5 44.5t-123.5 19q-100 0 -188.5 -44.5t-150 -116t-106.5 -160t-66.5 -178t-21.5 -168.5 q0 -55 9.5 -105t35.5 -102t66 -89.5t107 -61t153 -23.5q21 0 41 1.5t54 9t63 20.5t63.5 38t62 58.5t52.5 86t39 117.5h-385l53 232h635l-174 -762h-240l33 98q-159 -129 -381 -129q-134 0 -239 42.5t-166 106t-100.5 146.5t-53.5 155.5t-14 141.5z" />
<glyph unicode="H" horiz-adv-x="1449" d="M47 0l334 1446h272l-131 -567h629l131 567h272l-333 -1446h-273l150 647h-629l-150 -647h-272z" />
<glyph unicode="I" horiz-adv-x="555" d="M49 0l334 1446h272l-333 -1446h-273z" />
<glyph unicode="J" horiz-adv-x="811" d="M-49 0l57 244q78 -23 166 -23q54 0 94.5 18.5t64 37.5t45.5 75.5t29.5 84t26.5 111.5q1 5 2 7l207 891h270l-223 -969q-20 -84 -31.5 -129t-34 -107.5t-45 -94.5t-60 -70.5t-84 -56t-111.5 -30t-148 -12.5q-110 0 -225 23z" />
<glyph unicode="K" horiz-adv-x="1323" d="M47 0l334 1446h268l-153 -664l675 664h353l-629 -578l389 -868h-303l-289 692l-274 -246l-103 -446h-268z" />
<glyph unicode="L" horiz-adv-x="1067" d="M47 0l334 1446h272l-278 -1206h622l-55 -240h-895z" />
<glyph unicode="M" horiz-adv-x="1748" d="M47 0l334 1446h395l72 -1094l606 1094h397l-333 -1446h-263l287 1198l-647 -1198h-233l-89 1198l-262 -1198h-264z" />
<glyph unicode="N" horiz-adv-x="1449" d="M47 0l334 1446h246l440 -1067l227 1067h260l-333 -1446h-240l-444 1061l-226 -1061h-264z" />
<glyph unicode="O" horiz-adv-x="1536" d="M154 588q0 82 13 166.5t42.5 172.5t72 167.5t106.5 150t142 121.5t182 81t222 30q90 0 174 -20.5t162 -68t135.5 -118t92 -177.5t34.5 -239q0 -118 -27 -238t-88.5 -237t-150 -207.5t-222 -146.5t-294.5 -56q-283 0 -439.5 168t-156.5 451zM430 596q0 -55 8.5 -105.5 t32 -102.5t60.5 -89.5t99 -61.5t142 -24q110 0 198 47.5t141 119.5t88.5 163.5t49 172t13.5 152.5q0 181 -91.5 277t-244.5 96q-101 0 -186 -43t-141 -111.5t-95 -155t-56.5 -171.5t-17.5 -164z" />
<glyph unicode="P" horiz-adv-x="1236" d="M47 0l334 1446h512q99 0 177 -21.5t128 -58t83 -87.5t46.5 -106.5t13.5 -119.5q0 -34 -4.5 -73t-20 -93t-39.5 -104t-68 -100.5t-100.5 -87.5t-142 -60t-188.5 -23h-340l-119 -512h-272zM492 743h264q149 0 229 82t80 203q0 100 -64 143t-184 43h-217z" />
<glyph unicode="Q" horiz-adv-x="1579" d="M145 565q0 83 11.5 167t39.5 175t69.5 172t106 155t144.5 127t189.5 84.5t236.5 31.5q268 0 431 -168.5t163 -442.5q0 -129 -40 -276t-97 -242q67 -70 121.5 -112.5t140.5 -92.5l-141 -233q-33 11 -140 102t-137 135q-91 -87 -229 -132.5t-277 -45.5q-140 0 -254 47.5 t-187 130t-112 189.5t-39 229zM424 594q0 -174 92 -278.5t248 -104.5q146 0 260.5 88t177 241.5t62.5 344.5q0 51 -10 99t-35 96.5t-62 84t-96 58t-133 22.5q-109 0 -197.5 -45t-144 -114.5t-93.5 -159t-53.5 -172.5t-15.5 -160z" />
<glyph unicode="R" horiz-adv-x="1323" d="M47 0l334 1446h543q52 0 99.5 -6t101.5 -20.5t98 -43t80.5 -69t56.5 -103t20 -141.5q0 -70 -21 -141t-62.5 -138.5t-115 -117t-167.5 -64.5l190 -602h-282l-170 569h-303l-132 -569h-270zM498 782h303q46 0 87 7.5t80.5 26t68 46.5t46 73t17.5 101t-20 94t-58 57.5 t-80.5 27.5t-97.5 8h-244z" />
<glyph unicode="S" horiz-adv-x="1280" d="M68 383l254 96q22 -132 117.5 -197t230.5 -65q65 0 115.5 16t78.5 39t45.5 53t23 53.5t5.5 45.5q0 41 -16.5 71.5t-51.5 53t-65.5 36t-83.5 31.5l-113 39q-80 28 -139.5 59.5t-112.5 76.5t-80.5 108t-27.5 141q0 181 153.5 305.5t393.5 124.5q179 0 316 -74t208 -227 l-234 -118q-73 188 -305 188q-115 0 -179 -49t-64 -113q0 -65 42.5 -101t151.5 -75l133 -47q194 -69 279.5 -166t85.5 -233q0 -65 -22.5 -131.5t-70.5 -129.5t-115.5 -111.5t-166 -78t-213.5 -29.5q-99 0 -189 23t-169 70.5t-136 128t-79 186.5z" />
<glyph unicode="T" horiz-adv-x="1110" d="M205 1210l55 236h1063l-55 -236h-375l-279 -1210h-274l278 1210h-413z" />
<glyph unicode="U" horiz-adv-x="1409" d="M141 373q0 85 39 256l191 817h270l-186 -815q-39 -173 -39 -215q0 -100 71 -153.5t195 -53.5q81 0 141.5 22t101 66t66 100t43.5 133l211 916h273l-226 -977q-58 -251 -212.5 -375.5t-428.5 -124.5q-225 0 -367.5 110.5t-142.5 293.5z" />
<glyph unicode="V" horiz-adv-x="1193" d="M244 1446h268l49 -1163l584 1163h293l-766 -1446h-330z" />
<glyph unicode="W" horiz-adv-x="1705" d="M258 0v1446h264l-37 -1127l482 1127h268l-39 -1127l479 1127h273l-658 -1446h-313l31 1012l-435 -1012h-315z" />
<glyph unicode="X" horiz-adv-x="1323" d="M-86 0l690 782l-276 664h293l167 -442l367 442h334l-598 -674l334 -772h-303l-215 553l-467 -553h-326z" />
<glyph unicode="Y" horiz-adv-x="1236" d="M242 1446h280l197 -639l455 639h313l-670 -871l-133 -575h-274l133 575z" />
<glyph unicode="Z" horiz-adv-x="1193" d="M-57 0l55 240l973 974h-735l53 232h1095l-51 -217l-989 -993h813l-53 -236h-1161z" />
<glyph unicode="[" horiz-adv-x="583" d="M-18 -295l436 1890h420l-35 -149h-199l-366 -1593h198l-35 -148h-419z" />
<glyph unicode="\" horiz-adv-x="894" d="M250 1446h235l306 -1446h-236z" />
<glyph unicode="]" horiz-adv-x="583" d="M-139 -295l35 150h198l367 1593h-199l35 147h420l-436 -1890h-420z" />
<glyph unicode="^" horiz-adv-x="1482" d="M219 582l615 864h258l235 -864h-260l-141 626l-418 -626h-289z" />
<glyph unicode="_" horiz-adv-x="1024" d="M-199 -455l45 189h1063l-43 -189h-1065z" />
<glyph unicode="`" horiz-adv-x="555" d="M86 1446h305l78 -279h-203z" />
<glyph unicode="a" d="M57 270q0 317 424 355l213 18q88 7 137 25q15 68 15 86q0 108 -187 108q-184 0 -200 -145h-262q9 67 39.5 122t85 100.5t144 71t206.5 25.5q36 0 71 -2.5t77.5 -10t78.5 -20t71 -33.5t60 -49t40 -69.5t15 -91.5q0 -72 -38 -234l-50 -213q-34 -144 -34 -215q0 -48 12 -98 h-264q-4 32 -4 53q0 9 4 49q-27 -23 -48.5 -39t-61 -38t-91 -33.5t-111.5 -11.5q-78 0 -139.5 19t-98.5 49t-61.5 69.5t-33.5 77t-9 75.5zM313 305q0 -66 49.5 -98.5t106.5 -32.5q81 0 170 48.5t111 84.5l41 178l-299 -34q-36 -4 -64 -12t-56 -23.5t-43.5 -43.5t-15.5 -67z " />
<glyph unicode="b" horiz-adv-x="1193" d="M39 0l334 1446h248l-115 -496q97 97 260 97q183 0 285 -119t102 -305q0 -120 -36 -234.5t-102.5 -208t-173 -150.5t-235.5 -57q-96 0 -163.5 31t-131.5 102l-24 -106h-248zM389 403q0 -109 62.5 -162t146.5 -53q70 0 126.5 33.5t89 82t54.5 108.5t29.5 107t7.5 83 q0 43 -10.5 81.5t-32.5 73.5t-64.5 56t-99.5 21q-77 0 -139 -43t-97.5 -110t-54 -139t-18.5 -139z" />
<glyph unicode="c" horiz-adv-x="1093" d="M92 412q0 66 14.5 136t42.5 142t75 135.5t106.5 113.5t142 79t176.5 29q71 0 138 -18t126.5 -54.5t99.5 -98t50 -141.5l-232 -78q0 17 -2.5 35.5t-13.5 47.5t-29 50.5t-53 37.5t-82 16q-75 0 -135.5 -39.5t-96 -102t-54.5 -132.5t-19 -138q0 -122 52.5 -185t150.5 -63 q54 0 96.5 17t72 49.5t47 61.5t36.5 71l221 -92q-29 -67 -67 -119.5t-95 -100t-139 -73t-184 -25.5q-69 0 -132 15t-120.5 49t-100 84t-67.5 124.5t-25 166.5z" />
<glyph unicode="d" horiz-adv-x="1193" d="M92 389q0 72 16 154t57 173.5t100 163.5t155 119.5t213 47.5q209 0 295 -162l129 561h246l-334 -1446h-246l25 106q-22 -25 -41.5 -42.5t-55 -41t-84 -36.5t-106.5 -13q-176 0 -272.5 118t-96.5 298zM344 410q0 -97 52 -158.5t141 -61.5q97 0 169.5 66t107 163.5 t34.5 205.5q0 102 -49.5 158.5t-143.5 56.5q-60 0 -111.5 -27.5t-87.5 -72.5t-62 -102t-38 -115t-12 -113z" />
<glyph unicode="e" horiz-adv-x="1110" d="M94 420q0 80 17.5 162.5t59.5 167t103.5 149.5t159.5 106.5t217 41.5q97 0 174.5 -28.5t124 -72.5t77.5 -102t42.5 -112t11.5 -107q0 -69 -18 -148h-711q-6 -24 -6 -63q0 -45 11.5 -85t36 -75.5t69.5 -56.5t106 -21q47 0 89 15t67.5 32t52 47.5t34 43t22.5 36.5l206 -127 q-80 -123 -208 -186.5t-279 -63.5q-209 0 -334 120t-125 327zM395 657h439v29q0 28 -9 57t-28 58t-56.5 47t-87.5 18q-89 0 -156.5 -57.5t-101.5 -151.5z" />
<glyph unicode="f" horiz-adv-x="641" d="M76 0l196 842h-163l41 176h161l54 205q16 62 48.5 107.5t66.5 68t79.5 35.5t74.5 15.5t66 2.5q92 0 174 -12l-49 -207q-10 1 -38.5 3.5t-41.5 2.5q-84 0 -116.5 -33t-57.5 -137l-12 -51h217l-39 -176h-217l-194 -842h-250z" />
<glyph unicode="g" horiz-adv-x="1193" d="M-6 -18h254v-21q0 -78 54.5 -114.5t131.5 -36.5q71 0 124.5 23.5t88.5 69.5t57 98t41 126q-40 -40 -118 -68t-150 -28t-137.5 27t-118 78t-84 134t-31.5 185q0 159 71.5 295t195 216.5t268.5 80.5q80 0 160.5 -32t128.5 -93l22 96h250l-192 -836q-48 -210 -116.5 -329 t-179 -175.5t-284.5 -56.5q-91 0 -166.5 18t-137.5 55.5t-97 104t-35 156.5v27zM360 461q0 -61 18.5 -106.5t49 -70t63 -36.5t66.5 -12q74 0 134 35t96 92t55.5 123.5t19.5 134.5q0 38 -7 71.5t-25.5 71t-59.5 60t-100 22.5q-64 0 -117.5 -27t-88 -69t-59 -94.5t-35 -102 t-10.5 -92.5z" />
<glyph unicode="h" d="M39 0l334 1446h250l-121 -524q130 114 293 114q74 0 131.5 -23t91 -62t50.5 -86t17 -99q0 -64 -38 -244l-121 -522h-250l112 487q35 146 35 205q0 64 -34.5 98.5t-98.5 34.5q-44 0 -82 -13.5t-63.5 -32.5t-48.5 -50.5t-35.5 -55.5t-25 -61.5t-16.5 -54t-11 -45.5 l-119 -512h-250z" />
<glyph unicode="i" horiz-adv-x="512" d="M39 0l237 1018h246l-235 -1018h-248zM317 1198l56 248h248l-58 -248h-246z" />
<glyph unicode="j" horiz-adv-x="512" d="M-199 -346l52 217q60 -10 79 -10q51 0 74.5 42t46.5 144l223 971h246l-235 -1020q-32 -141 -59 -198q-72 -154 -242 -166q-15 -1 -31 -1q-71 0 -154 21zM317 1198l58 248h246l-58 -248h-246z" />
<glyph unicode="k" horiz-adv-x="1110" d="M39 0l334 1446h245l-186 -807l455 379h313l-442 -356l293 -662h-275l-211 508l-198 -160l-82 -348h-246z" />
<glyph unicode="l" horiz-adv-x="512" d="M39 0l334 1446h248l-334 -1446h-248z" />
<glyph unicode="m" horiz-adv-x="1748" d="M39 0l237 1018h244l-24 -109q30 29 48 44t54.5 38t81 34t98.5 11q99 0 167 -42t97 -115q56 62 149 109.5t204 47.5q123 0 208 -71.5t85 -192.5q0 -74 -39 -237l-123 -535h-248l119 512q33 142 33 184q0 33 -11 57.5t-26 37t-35 20.5t-34.5 10t-27.5 2q-203 0 -280 -325 l-117 -498h-246l115 500q35 154 35 188q0 76 -38.5 105.5t-86.5 29.5q-203 0 -272 -301l-121 -522h-246z" />
<glyph unicode="n" d="M39 0l237 1018h232l-27 -111q56 52 137.5 90.5t180.5 38.5q26 0 51.5 -3.5t60.5 -13t64 -29.5t54.5 -49.5t40.5 -77.5t15 -109q0 -86 -30 -211l-125 -543h-250l117 506q28 119 28 178q0 139 -133 139q-214 0 -289 -319l-116 -504h-248z" />
<glyph unicode="o" d="M88 412q0 64 14.5 132.5t43 141t77.5 136.5t112 115t152 80.5t193 29.5q89 0 162 -24.5t122.5 -65.5t84 -96t50 -115.5t15.5 -124.5q0 -83 -19.5 -169t-65.5 -173t-112 -154t-168 -109.5t-225 -42.5q-195 0 -315.5 119.5t-120.5 319.5zM336 420q0 -102 54 -169t155 -67 q96 0 171 62.5t113.5 159.5t38.5 208q0 47 -10.5 86t-33 72t-64 51.5t-98.5 18.5q-68 0 -125 -29.5t-93 -75t-61.5 -103.5t-36 -112t-10.5 -102z" />
<glyph unicode="p" horiz-adv-x="1193" d="M-43 -369l322 1387h241l-26 -111q32 51 107.5 95.5t176.5 44.5q76 0 143 -27t120 -78.5t83.5 -135t30.5 -188.5q0 -118 -36.5 -232t-103 -206.5t-169.5 -149.5t-225 -57q-97 0 -182 36t-124 114l-112 -492h-246zM389 424q0 -67 20.5 -115.5t54 -73.5t68.5 -36t72 -11 q68 0 123 34.5t87 84t53.5 110.5t29.5 109.5t8 85.5q0 44 -10.5 83t-33.5 73.5t-65.5 55t-99.5 20.5q-79 0 -140.5 -41t-96.5 -106t-52.5 -135t-17.5 -138z" />
<glyph unicode="q" d="M92 383q0 66 13.5 137t41 147t74 143t106.5 120.5t145.5 85t184.5 31.5q189 0 275 -146l26 117h244l-319 -1387h-244l102 447q-121 -105 -282 -105q-83 0 -148.5 26t-105.5 67t-66.5 96.5t-36.5 109.5t-10 111zM342 401q0 -41 8.5 -75.5t29 -65.5t59.5 -49t93 -18 q77 0 142 41.5t105 106t61.5 137t21.5 140.5q0 95 -48 154t-146 59q-81 0 -146 -42t-103 -107.5t-57.5 -138.5t-19.5 -142z" />
<glyph unicode="r" horiz-adv-x="724" d="M39 0l237 1018h246l-53 -174q61 76 124 120t110 56t102 12l39 -2l-60 -254q-24 4 -57 4q-122 0 -207 -69q-39 -33 -66.5 -80.5t-38.5 -84.5t-26 -100l-102 -446h-248z" />
<glyph unicode="s" horiz-adv-x="1024" d="M18 238l211 129q4 -16 10 -32.5t27.5 -47.5t49.5 -53.5t80.5 -40t117.5 -17.5q93 0 139.5 39t46.5 80q0 26 -11.5 46t-33.5 33.5t-41 21.5t-47 16l-133 43q-260 84 -260 268q0 140 116 232t300 92q146 0 261 -56.5t177 -169.5l-192 -114q-18 48 -52 80.5t-72.5 46t-65 18 t-50.5 4.5q-27 0 -53 -4.5t-54 -15t-45.5 -33t-17.5 -53.5q0 -37 34.5 -62.5t100.5 -46.5l88 -27q152 -46 225.5 -117t73.5 -186q0 -29 -6.5 -62.5t-33.5 -85.5t-71.5 -91.5t-131.5 -69t-203 -29.5q-31 0 -56.5 1.5t-76 8.5t-94.5 24.5t-93.5 45t-92 75.5t-71.5 110z" />
<glyph unicode="t" horiz-adv-x="641" d="M131 842l41 176h150l81 356h246l-82 -356h189l-41 -176h-189l-102 -441q-21 -88 -21 -118q0 -84 107 -84q22 0 76 4l-47 -203q-75 -12 -140 -12q-252 0 -252 205q0 20 2 41.5t6.5 48.5t7.5 42t10 47.5t9 39.5l101 430h-152z" />
<glyph unicode="u" d="M115 248q0 68 39 244l122 526h246l-114 -498q-35 -149 -35 -201q0 -51 34.5 -90t100.5 -39q53 0 96.5 19t74 50t55 78.5t40.5 96.5t31 113l110 471h246l-235 -1018h-228l25 109q-133 -127 -301 -127q-132 0 -219.5 68.5t-87.5 197.5z" />
<glyph unicode="v" horiz-adv-x="937" d="M129 1018h244l20 -797l410 797h254l-559 -1018h-289z" />
<glyph unicode="w" horiz-adv-x="1449" d="M152 1018h241l-10 -748l346 748h240v-748l348 748h260l-524 -1018h-269v692l-333 -692h-261z" />
<glyph unicode="x" horiz-adv-x="1067" d="M-55 0l479 543l-229 475h266l127 -320l243 320h299l-430 -494l256 -524h-272l-147 367l-287 -367h-305z" />
<glyph unicode="y" horiz-adv-x="937" d="M-94 -350l49 219q48 -12 104 -12q54 0 90 26t62 84l-94 1051h250l26 -793l404 793h260l-580 -1051q-2 -3 -6 -10q-81 -150 -127 -205q-92 -110 -225 -120q-14 -1 -29 -1q-58 0 -184 19z" />
<glyph unicode="z" horiz-adv-x="980" d="M-18 0l36 164l656 653h-504l45 201h844l-41 -176l-645 -633h557l-49 -209h-899z" />
<glyph unicode="{" horiz-adv-x="614" d="M61 575l35 154q38 1 62 4t48 11.5t39 22.5t29.5 38t25.5 58t22 83l71 316q19 83 35.5 132.5t42.5 94.5t62.5 67.5t90 35t130.5 12.5h104l-33 -146h-45q-72 0 -104 -44.5t-64 -178.5l-73 -313q-32 -139 -81.5 -199t-150.5 -80q117 -41 117 -164q0 -54 -16 -129l-66 -282 q-23 -99 -23 -134q0 -88 107 -88h27l-33 -147h-107q-106 0 -163.5 54.5t-57.5 154.5q0 43 27 162l67 288q17 74 17 97q0 59 -30.5 86t-111.5 34z" />
<glyph unicode="|" horiz-adv-x="505" d="M-18 -297l436 1890h221l-434 -1890h-223z" />
<glyph unicode="}" horiz-adv-x="614" d="M-141 -303l32 147h35q32 0 54 4t39.5 17.5t27.5 26t21.5 44t17.5 55.5t18 75l74 315q32 138 82 197t150 79q-117 41 -117 166q0 52 16 127l66 283q24 106 24 133q0 90 -106 90h-29l33 146h106q106 0 164 -54.5t58 -154.5q0 -53 -25 -160l-70 -291q-14 -65 -14 -102 q0 -55 31.5 -80.5t109.5 -34.5l-36 -152q-38 -1 -62 -4t-48 -11.5t-39 -22.5t-29.5 -38t-25.5 -58t-22 -83l-71 -317q-24 -109 -47 -169.5t-64 -102.5t-97.5 -56t-150.5 -14h-106z" />
<glyph unicode="~" horiz-adv-x="1482" d="M190 655q93 111 170.5 158t176.5 47q53 0 101.5 -15t127.5 -54l123 -60q68 -32 96 -41.5t59 -9.5q65 0 123.5 34.5t145.5 127.5l90 -207q-106 -109 -189.5 -156t-169.5 -47q-48 0 -99.5 17.5t-141.5 62.5l-70 35q-119 61 -205 61q-60 0 -105 -27.5t-120 -109.5l-22 -25z " />
<glyph unicode="&#xa1;" horiz-adv-x="598" d="M29 0l141 608l172 434h129l-37 -421l-143 -621h-262zM299 1169l63 277h273l-64 -277h-272z" />
<glyph unicode="&#xa2;" horiz-adv-x="1067" d="M92 403q0 118 34.5 230.5t100 207t174 153.5t244.5 61l41 174h127l-43 -182q122 -24 207.5 -105.5t97.5 -198.5l-231 -75q-14 156 -119 176l-152 -654q81 0 146.5 63t89.5 134l225 -92q-29 -64 -66.5 -115t-74.5 -83.5t-82 -56t-80.5 -35.5t-79 -19t-69 -8t-58.5 -1 l-49 -210h-127l51 227q-85 20 -147 64t-95.5 102t-49 118t-15.5 125zM344 424q0 -161 107 -213l147 633q-101 -14 -177.5 -135t-76.5 -285z" />
<glyph unicode="&#xa3;" horiz-adv-x="1280" d="M49 209q0 47 15.5 91.5t45.5 82.5t80 61t113 23q35 0 93.5 -15.5t107.5 -52.5q20 45 20 93q0 18 -3 35t-5.5 26t-10.5 30.5t-11 30.5h-279l41 179h184q-65 110 -65 229q0 179 133 287t354 108q71 0 133.5 -12.5t121 -43t99.5 -77t66 -119t25 -164.5q0 -14 -9 -86h-231 q6 24 6 72q0 108 -51 171t-156 63q-98 0 -164.5 -64.5t-66.5 -157.5q0 -28 6.5 -57.5t13.5 -48t21 -51.5t20 -49h271l-41 -179h-197q21 -60 21 -127q0 -38 -12.5 -97.5t-43.5 -115.5q6 -4 36.5 -24t42.5 -26.5t37 -14.5t48 -8q25 0 46.5 13t35 30t27 47.5t20.5 53t17.5 59 t15.5 53.5h246q-8 -34 -11.5 -47.5t-16 -58t-22.5 -70t-29.5 -70t-39 -71.5t-48.5 -61t-60 -53t-72 -32.5t-86 -13.5q-156 0 -299 126q-131 -131 -283 -131q-107 0 -178.5 65.5t-71.5 168.5zM236 219q0 -26 21 -41.5t48 -15.5q58 0 119 74q-70 51 -123 51q-23 0 -44 -17.5 t-21 -50.5z" />
<glyph unicode="&#xa4;" horiz-adv-x="1411" d="M106 260l177 150q-64 122 -64 235q0 221 139 379l-137 164l178 153l138 -161q136 75 294 75q93 0 164.5 -23t153.5 -81l176 149l141 -170l-174 -147q60 -114 60 -221q0 -218 -140 -395l140 -166l-181 -154l-139 166q-78 -41 -145.5 -58.5t-149.5 -17.5q-95 0 -161.5 22.5 t-151.5 82.5l-178 -150zM467 662q0 -127 81 -211t204 -84q149 0 251.5 105t102.5 259q0 131 -81 212t-212 81q-148 0 -247 -103.5t-99 -258.5z" />
<glyph unicode="&#xa5;" horiz-adv-x="1193" d="M37 391l39 170h385l-49 137h-303l38 170h207l-180 525h268l189 -617l440 617h299l-401 -525h196l-41 -170h-286l-107 -137h363l-39 -170h-367l-90 -391h-262l90 391h-389z" />
<glyph unicode="&#xa6;" horiz-adv-x="505" d="M-12 -293l190 823h223l-190 -823h-223zM233 772l191 823h223l-190 -823h-224z" />
<glyph unicode="&#xa7;" horiz-adv-x="1236" d="M72 -43l153 190q57 -77 150.5 -119t195.5 -42q36 0 69 4t71 15.5t61 37.5t23 63q0 35 -37 62.5t-96 49t-130.5 43.5t-143 52.5t-130.5 70t-96 102.5t-37 143q0 126 70.5 215t193.5 110q-74 59 -74 168q0 102 68 187q132 168 408 168q113 0 227 -37t196 -105l-143 -170 q-41 52 -128 81.5t-163 29.5q-30 0 -63.5 -5.5t-68.5 -17.5t-58 -36.5t-23 -57.5q0 -17 8.5 -32t19 -24.5t30.5 -19t32 -14t35 -11.5t29 -9l160 -56q40 -14 59 -20.5t54.5 -21t53.5 -24.5t46.5 -27t43.5 -33t33.5 -39t27.5 -47.5t15.5 -56t6.5 -67.5q0 -115 -76 -208.5 t-189 -116.5q95 -85 95 -195q0 -156 -137.5 -261t-360.5 -105q-135 0 -263.5 47.5t-217.5 138.5zM360 688q0 -33 12.5 -57t45 -44t57.5 -30.5t80 -30.5l154 -55q84 -30 99 -40q2 -1 5 -3q68 5 119 48t51 106q0 30 -10.5 54t-23.5 39t-42 29.5t-49 22.5t-61 21l-170 57 q-26 9 -45 16.5t-27 11.5l-19 9.5t-14 7.5q-162 -33 -162 -162z" />
<glyph unicode="&#xa8;" horiz-adv-x="555" d="M-119 1165l60 254h258l-58 -254h-260zM358 1165l58 254h258l-58 -254h-258z" />
<glyph unicode="&#xa9;" horiz-adv-x="1720" d="M207 725q0 200 97 367.5t264.5 264.5t367.5 97q196 0 363.5 -96t265.5 -261t98 -358q0 -157 -56 -295t-152.5 -236t-231.5 -155t-289 -57q-200 0 -367 96.5t-263.5 264t-96.5 368.5zM289 723q0 -135 50.5 -256t136.5 -208t205.5 -138t252.5 -51q130 0 249.5 51.5 t206.5 138t139 205.5t52 248q0 140 -49.5 263.5t-135 211.5t-206 139t-256.5 51q-175 0 -323.5 -87.5t-235 -238.5t-86.5 -329zM506 676q0 229 136 382.5t337 153.5q117 0 199.5 -47.5t152.5 -156.5l-147 -119q-49 78 -97.5 109.5t-119.5 31.5q-106 0 -178 -100t-72 -246 q0 -106 55 -169.5t146 -63.5q58 0 99.5 21t98.5 79l111 -143q-87 -82 -157.5 -114t-168.5 -32q-170 0 -282.5 118t-112.5 296z" />
<glyph unicode="&#xaa;" horiz-adv-x="768" d="M207 963q0 95 63.5 156t186.5 73l161 16q62 5 84 15q9 36 9 49q0 63 -113 63q-65 0 -91.5 -25t-31.5 -69h-180q7 71 53 125q82 92 252 92q36 0 68 -3t72 -14.5t68.5 -30.5t48.5 -54t20 -82q0 -35 -27 -152l-29 -125q-24 -108 -24 -145q0 -25 10 -70h-182q-2 12 -2 27v31 q-30 -24 -49.5 -36.5t-56.5 -24t-81 -11.5q-63 0 -109.5 18t-71.5 47.5t-36.5 62t-11.5 67.5zM383 983q0 -31 23 -54.5t71 -23.5q47 0 96 26.5t76 55.5l23 105l-144 -17q-31 -4 -49.5 -7t-39 -9t-31.5 -15.5t-18 -24.5t-7 -36z" />
<glyph unicode="&#xab;" horiz-adv-x="894" d="M86 489l53 240l396 254l-66 -287l-197 -102l146 -117l-58 -248zM508 489l53 240l395 254l-65 -287l-197 -102l146 -117l-58 -248z" />
<glyph unicode="&#xac;" horiz-adv-x="1482" d="M154 530l51 222h1159l-166 -719h-266l115 497h-893z" />
<glyph unicode="&#xad;" horiz-adv-x="761" d="M113 508l53 231h592l-53 -231h-592z" />
<glyph unicode="&#xae;" horiz-adv-x="1720" d="M207 725q0 200 97 367.5t264.5 264.5t367.5 97q196 0 363.5 -96t265.5 -261t98 -358q0 -157 -56 -295t-152.5 -236t-231.5 -155t-289 -57q-200 0 -367 96.5t-263.5 264t-96.5 368.5zM289 723q0 -135 50.5 -256t136.5 -208t205.5 -138t252.5 -51q130 0 249.5 51.5 t206.5 138t139 205.5t52 248q0 140 -49.5 263.5t-135 211.5t-206 139t-256.5 51q-175 0 -323.5 -87.5t-235 -238.5t-86.5 -329zM551 285l192 905h234q47 0 83 -3t79 -11t73.5 -25.5t57 -43.5t40 -67.5t13.5 -95.5q0 -218 -211 -291l96 -368h-202l-74 342h-119l-74 -342h-188 zM846 786h92q102 0 147 32t45 104q0 27 -9 46t-21 29t-34 15.5t-39.5 6.5t-45.5 1h-86z" />
<glyph unicode="&#xaf;" horiz-adv-x="555" d="M-82 1206l39 178h680l-39 -178h-680z" />
<glyph unicode="&#xb0;" horiz-adv-x="724" d="M127 1192q0 147 102.5 250.5t249.5 103.5q148 0 250 -103t102 -251q0 -145 -103.5 -248.5t-248.5 -103.5t-248.5 103.5t-103.5 248.5zM332 1192q0 -60 43.5 -104t103.5 -44t104 44t44 104q0 61 -43.5 103t-104.5 42q-62 0 -104.5 -42t-42.5 -103z" />
<glyph unicode="&#xb1;" horiz-adv-x="1482" d="M106 0l52 217h1097l-51 -217h-1098zM279 750l49 215h411l97 409h264l-94 -409h417l-49 -215h-418l-94 -418h-266l94 418h-411z" />
<glyph unicode="&#xb2;" horiz-adv-x="768" d="M100 477l33 144q44 24 216 161t233 217q59 76 59 134q0 45 -30 76.5t-76 31.5q-60 0 -107 -50t-57 -144l-172 26q11 82 42 144t68.5 95.5t85 54t83.5 26.5t71 6q114 0 196 -66.5t82 -185.5q0 -62 -24.5 -119t-83.5 -120.5t-132 -124t-194 -150.5h359l-37 -156h-615z" />
<glyph unicode="&#xb3;" horiz-adv-x="768" d="M111 760l180 18v-16q0 -64 41 -106t106 -42q63 0 111.5 41.5t48.5 108.5q0 121 -154 121q-28 0 -38 -2l34 149l23 -2q23 -2 35 -2q25 0 50.5 5.5t51.5 17.5t42.5 37t16.5 59q0 40 -28.5 71t-89.5 31q-18 0 -36.5 -5t-41.5 -17.5t-41.5 -40t-26.5 -66.5l-172 39 q21 69 58 118.5t83 74.5t92 36t97 11q136 0 210.5 -69.5t74.5 -155.5q0 -75 -47.5 -137.5t-143.5 -90.5q35 -7 61 -26t38.5 -39.5t20.5 -46t9.5 -40.5t1.5 -28q0 -37 -11 -76t-37 -80.5t-64.5 -74t-99 -53.5t-134.5 -21q-76 0 -134 21t-90 50.5t-54 74.5t-30 78t-13 75z" />
<glyph unicode="&#xb4;" horiz-adv-x="555" d="M35 1167l147 279h338l-266 -279h-219z" />
<glyph unicode="&#xb5;" horiz-adv-x="1218" d="M-16 -442l327 1460h242l-115 -500q-32 -151 -35 -205q0 -72 39.5 -112.5t110.5 -40.5q51 0 93.5 23t71.5 58.5t54 91t40.5 107t31.5 119.5l106 459h246l-170 -750q-6 -24 -6 -47q0 -51 51 -51q23 0 62 14l-41 -186q-80 -18 -144 -18q-74 0 -120 39t-46 122 q-60 -89 -119 -125t-147 -36q-133 0 -170 114l-119 -536h-243z" />
<glyph unicode="&#xb6;" horiz-adv-x="1308" d="M289 997q0 109 48 203.5t136 155.5q71 50 158 70t235 20h477l-32 -143h-72l-379 -1645h-151l381 1645h-265l-379 -1645h-151l225 979q-231 96 -231 360z" />
<glyph unicode="&#xb7;" horiz-adv-x="409" d="M127 467l57 254h207l-55 -254h-209z" />
<glyph unicode="&#xb8;" horiz-adv-x="555" d="M45 -432l18 82q74 -23 115 -23q44 0 79.5 18.5t35.5 47.5q0 47 -96 47q-33 0 -70 -6l12 57l289 293h82l-178 -236h28q57 0 102.5 -36.5t45.5 -92.5q0 -76 -90 -131q-81 -49 -187 -49q-93 0 -186 29z" />
<glyph unicode="&#xb9;" horiz-adv-x="768" d="M272 1102l27 117q90 0 166.5 43t97.5 120h158l-209 -905h-174l117 508q14 57 14 82q0 23 -14 29t-49 6h-134z" />
<glyph unicode="&#xba;" horiz-adv-x="768" d="M221 1053q0 54 15 111t46.5 110.5t75 96t106 68t134.5 25.5q132 0 212.5 -73.5t80.5 -204.5q0 -34 -6.5 -73.5t-22 -89t-44.5 -94t-69.5 -82.5t-102.5 -60.5t-138 -22.5q-70 0 -124 22.5t-83.5 55t-48.5 74.5t-25 75t-6 62zM391 1059q0 -62 32.5 -105t96.5 -43 q85 0 143 79t58 194q0 62 -32 99.5t-95 37.5q-43 0 -79 -19t-58.5 -48t-37.5 -65.5t-21.5 -69t-6.5 -60.5z" />
<glyph unicode="&#xbb;" horiz-adv-x="894" d="M23 229l67 287l197 102l-146 117l58 248l276 -262l-55 -238zM446 229l66 287l197 102l-146 117l58 248l274 -262l-53 -238z" />
<glyph unicode="&#xbc;" horiz-adv-x="1792" d="M272 1102l27 117q90 0 166.5 43t97.5 120h158l-209 -905h-174l117 508q14 57 14 82q0 23 -14 29t-49 6h-134zM436 47l953 1370l102 -69l-952 -1373zM1042 211l39 162l463 532h205l-125 -547h117l-35 -147h-117l-49 -211h-172l49 211h-375zM1245 358h205l88 340z" />
<glyph unicode="&#xbd;" horiz-adv-x="1792" d="M272 1102l27 117q90 0 166.5 43t97.5 120h158l-209 -905h-174l117 508q14 57 14 82q0 23 -14 29t-49 6h-134zM369 47l950 1370l102 -69l-950 -1373zM1014 0l33 141q350 250 448 379q57 74 57 135q0 45 -29 76t-75 31q-60 0 -107 -50t-57 -145l-172 27q11 82 42 144.5 t68.5 96.5t85 54.5t83.5 26.5t71 6q113 0 196 -67t83 -187q0 -92 -55 -176q-75 -111 -379 -336h358l-37 -156h-614z" />
<glyph unicode="&#xbe;" horiz-adv-x="1792" d="M111 760l180 18v-16q0 -64 41 -106t106 -42q63 0 111.5 41.5t48.5 108.5q0 121 -154 121q-28 0 -38 -2l34 149l23 -2q23 -2 35 -2q25 0 50.5 5.5t51.5 17.5t42.5 37t16.5 59q0 40 -28.5 71t-89.5 31q-18 0 -36.5 -5t-41.5 -17.5t-41.5 -40t-26.5 -66.5l-172 39 q21 69 58 118.5t83 74.5t92 36t97 11q136 0 210.5 -69.5t74.5 -155.5q0 -75 -47.5 -137.5t-143.5 -90.5q35 -7 61 -26t38.5 -39.5t20.5 -46t9.5 -40.5t1.5 -28q0 -37 -11 -76t-37 -80.5t-64.5 -74t-99 -53.5t-134.5 -21q-76 0 -134 21t-90 50.5t-54 74.5t-30 78t-13 75z M498 47l950 1370l102 -69l-950 -1373zM1042 211l39 162l463 532h205l-125 -547h117l-35 -147h-117l-49 -211h-172l49 211h-375zM1245 358h205l88 340z" />
<glyph unicode="&#xbf;" horiz-adv-x="1110" d="M0 356q0 56 14.5 102t46.5 86.5t65.5 71.5t88.5 72l98 74q17 13 48 35.5t40 30t28.5 23.5t25.5 26t18 26.5t18 35.5t14 43.5t17 59.5h228l-25 -108q-25 -110 -60 -161.5t-145 -137.5l-92 -72q-5 -4 -28.5 -22t-30.5 -24t-25.5 -22.5t-25.5 -27.5t-17.5 -28t-14 -34.5 t-3.5 -37.5q0 -72 58 -118t148 -46q58 0 107 19t79.5 49t48 56t26.5 50q14 38 22 108l246 -57q-8 -36 -18 -69t-31.5 -80t-48 -85.5t-69.5 -79t-94.5 -68.5t-124 -46t-157.5 -18q-102 0 -185.5 24.5t-136 63.5t-88.5 89.5t-50.5 99.5t-14.5 97zM526 1169l64 277h270 l-63 -277h-271z" />
<glyph unicode="&#xc0;" horiz-adv-x="1323" d="M-53 0l829 1446h301l156 -1446h-272l-29 301h-529l-159 -301h-297zM528 528h385l-47 643zM694 1784h305l68 -244h-207z" />
<glyph unicode="&#xc1;" horiz-adv-x="1323" d="M-53 0l829 1446h301l156 -1446h-272l-29 301h-529l-159 -301h-297zM528 528h385l-47 643zM803 1534l133 250h332l-258 -250h-207z" />
<glyph unicode="&#xc2;" horiz-adv-x="1323" d="M-53 0l829 1446h301l156 -1446h-272l-29 301h-529l-159 -301h-297zM528 528h385l-47 643zM584 1540l262 250h270l146 -250h-230l-63 133l-123 -133h-262z" />
<glyph unicode="&#xc3;" horiz-adv-x="1323" d="M-53 0l829 1446h301l156 -1446h-272l-29 301h-529l-159 -301h-297zM528 528h385l-47 643zM592 1573q19 76 48.5 129.5t64 80t66.5 37.5t67 11q48 0 125.5 -37t103.5 -37q32 0 50.5 16t35.5 58h156q-15 -67 -36.5 -115.5t-42.5 -75.5t-48.5 -42t-50 -19t-52.5 -4 q-46 0 -128 38t-115 38t-51.5 -17.5t-36.5 -60.5h-156z" />
<glyph unicode="&#xc4;" horiz-adv-x="1323" d="M-53 0l829 1446h301l156 -1446h-272l-29 301h-529l-159 -301h-297zM528 528h385l-47 643zM578 1538l59 252h258l-59 -252h-258zM1053 1538l59 252h258l-57 -252h-260z" />
<glyph unicode="&#xc5;" horiz-adv-x="1323" d="M-53 0l829 1446h301l156 -1446h-272l-29 301h-529l-159 -301h-297zM528 528h385l-47 643zM754 1706q0 77 54.5 130.5t133.5 53.5q49 0 86.5 -18.5t58 -47.5t31 -59.5t10.5 -58.5q0 -78 -54 -135.5t-132 -57.5q-82 0 -135 56.5t-53 136.5zM850 1702q0 -36 27 -63t61 -27 q40 0 66 26.5t26 67.5q0 36 -24.5 62t-63.5 26q-38 0 -65 -26t-27 -66z" />
<glyph unicode="&#xc6;" horiz-adv-x="2004" d="M-43 0l1087 1446h1088l-53 -238h-647l-80 -344h618l-55 -239h-619l-90 -387h756l-55 -238h-1014l76 334h-437l-241 -334h-334zM705 571h319l160 695z" />
<glyph unicode="&#xc7;" horiz-adv-x="1429" d="M156 575q0 109 20 216t59.5 208.5t103.5 188t146 151t193.5 101.5t239.5 37q132 0 237.5 -37.5t173 -104t103.5 -154.5t36 -192l-262 -45q0 139 -68 220t-218 81q-88 0 -162.5 -32t-125.5 -85.5t-90.5 -119.5t-61.5 -138.5t-33 -137t-11 -120.5q0 -109 29 -189.5 t78.5 -124.5t105.5 -64.5t119 -20.5q53 0 100.5 12t82 29.5t67 46.5t52 52t41 58.5t30.5 53.5t24 49l238 -96q-31 -85 -77 -154.5t-94.5 -115t-105 -80t-104.5 -53t-97.5 -29.5t-79.5 -14t-54 -3l-91 -123h21q57 0 105 -33t48 -92q0 -72 -80 -127t-200 -55q-25 0 -48.5 2 t-45 6t-34 7t-31.5 8t-21 6l18 82q11 -5 46.5 -14t64.5 -9q50 0 83 17.5t33 48.5q0 45 -90 45l-75 -4l14 57l178 180q-261 26 -395.5 185.5t-134.5 418.5z" />
<glyph unicode="&#xc8;" horiz-adv-x="1280" d="M47 0l334 1446h983l-53 -236h-717l-80 -342h682l-53 -231h-682l-92 -404h823l-53 -233h-1092zM633 1784h305l68 -244h-207z" />
<glyph unicode="&#xc9;" horiz-adv-x="1280" d="M47 0l334 1446h983l-53 -236h-717l-80 -342h682l-53 -231h-682l-92 -404h823l-53 -233h-1092zM725 1534l133 250h332l-258 -250h-207z" />
<glyph unicode="&#xca;" horiz-adv-x="1280" d="M47 0l334 1446h983l-53 -236h-717l-80 -342h682l-53 -231h-682l-92 -404h823l-53 -233h-1092zM526 1540l262 250h271l145 -250h-229l-64 133l-123 -133h-262z" />
<glyph unicode="&#xcb;" horiz-adv-x="1280" d="M47 0l334 1446h983l-53 -236h-717l-80 -342h682l-53 -231h-682l-92 -404h823l-53 -233h-1092zM535 1538l59 252h258l-59 -252h-258zM1010 1538l59 252h258l-57 -252h-260z" />
<glyph unicode="&#xcc;" horiz-adv-x="555" d="M49 0l334 1446h272l-333 -1446h-273zM311 1784h305l68 -244h-207z" />
<glyph unicode="&#xcd;" horiz-adv-x="555" d="M49 0l334 1446h272l-333 -1446h-273zM412 1534l133 250h332l-259 -250h-206z" />
<glyph unicode="&#xce;" horiz-adv-x="555" d="M49 0l334 1446h272l-333 -1446h-273zM201 1540l262 250h270l146 -250h-230l-63 133l-123 -133h-262z" />
<glyph unicode="&#xcf;" horiz-adv-x="555" d="M49 0l334 1446h272l-333 -1446h-273zM172 1538l59 252h258l-59 -252h-258zM647 1538l60 252h258l-58 -252h-260z" />
<glyph unicode="&#xd0;" horiz-adv-x="1492" d="M0 692l43 191h207l131 563h393q70 0 119 -2t111.5 -8.5t110 -20t97.5 -36t92 -58t76 -82.5q107 -150 107 -399q0 -88 -15.5 -175.5t-51.5 -179.5t-89.5 -171t-136 -147t-184.5 -110q-137 -57 -359 -57h-604l160 692h-207zM375 238h278q118 0 214 35.5t159 94t105 138 t60.5 163.5t18.5 173q0 57 -9 104.5t-24 83t-39.5 63t-49.5 46t-60.5 32t-66 20.5t-73 11t-74 5t-75.5 1h-139l-76 -325h324l-43 -191h-324z" />
<glyph unicode="&#xd1;" horiz-adv-x="1449" d="M47 0l334 1446h246l440 -1067l227 1067h260l-333 -1446h-240l-444 1061l-226 -1061h-264zM641 1573q19 76 48.5 129.5t64 80t66.5 37.5t67 11q48 0 125.5 -37t103.5 -37q32 0 50.5 16t35.5 58h156q-15 -67 -36.5 -115.5t-42.5 -75.5t-48.5 -42t-50 -19t-52.5 -4 q-46 0 -128 38t-115 38t-51.5 -17.5t-36.5 -60.5h-156z" />
<glyph unicode="&#xd2;" horiz-adv-x="1536" d="M154 588q0 82 13 166.5t42.5 172.5t72 167.5t106.5 150t142 121.5t182 81t222 30q90 0 174 -20.5t162 -68t135.5 -118t92 -177.5t34.5 -239q0 -118 -27 -238t-88.5 -237t-150 -207.5t-222 -146.5t-294.5 -56q-283 0 -439.5 168t-156.5 451zM430 596q0 -55 8.5 -105.5 t32 -102.5t60.5 -89.5t99 -61.5t142 -24q110 0 198 47.5t141 119.5t88.5 163.5t49 172t13.5 152.5q0 181 -91.5 277t-244.5 96q-101 0 -186 -43t-141 -111.5t-95 -155t-56.5 -171.5t-17.5 -164zM713 1784h305l67 -244h-206z" />
<glyph unicode="&#xd3;" horiz-adv-x="1536" d="M154 588q0 82 13 166.5t42.5 172.5t72 167.5t106.5 150t142 121.5t182 81t222 30q90 0 174 -20.5t162 -68t135.5 -118t92 -177.5t34.5 -239q0 -118 -27 -238t-88.5 -237t-150 -207.5t-222 -146.5t-294.5 -56q-283 0 -439.5 168t-156.5 451zM430 596q0 -55 8.5 -105.5 t32 -102.5t60.5 -89.5t99 -61.5t142 -24q110 0 198 47.5t141 119.5t88.5 163.5t49 172t13.5 152.5q0 181 -91.5 277t-244.5 96q-101 0 -186 -43t-141 -111.5t-95 -155t-56.5 -171.5t-17.5 -164zM834 1534l133 250h331l-258 -250h-206z" />
<glyph unicode="&#xd4;" horiz-adv-x="1536" d="M154 588q0 82 13 166.5t42.5 172.5t72 167.5t106.5 150t142 121.5t182 81t222 30q90 0 174 -20.5t162 -68t135.5 -118t92 -177.5t34.5 -239q0 -118 -27 -238t-88.5 -237t-150 -207.5t-222 -146.5t-294.5 -56q-283 0 -439.5 168t-156.5 451zM430 596q0 -55 8.5 -105.5 t32 -102.5t60.5 -89.5t99 -61.5t142 -24q110 0 198 47.5t141 119.5t88.5 163.5t49 172t13.5 152.5q0 181 -91.5 277t-244.5 96q-101 0 -186 -43t-141 -111.5t-95 -155t-56.5 -171.5t-17.5 -164zM688 1540l262 250h271l145 -250h-229l-64 133l-123 -133h-262z" />
<glyph unicode="&#xd5;" horiz-adv-x="1536" d="M154 588q0 82 13 166.5t42.5 172.5t72 167.5t106.5 150t142 121.5t182 81t222 30q90 0 174 -20.5t162 -68t135.5 -118t92 -177.5t34.5 -239q0 -118 -27 -238t-88.5 -237t-150 -207.5t-222 -146.5t-294.5 -56q-283 0 -439.5 168t-156.5 451zM430 596q0 -55 8.5 -105.5 t32 -102.5t60.5 -89.5t99 -61.5t142 -24q110 0 198 47.5t141 119.5t88.5 163.5t49 172t13.5 152.5q0 181 -91.5 277t-244.5 96q-101 0 -186 -43t-141 -111.5t-95 -155t-56.5 -171.5t-17.5 -164zM639 1573q19 76 48.5 129.5t64 80t66.5 37.5t67 11q48 0 125.5 -37t103.5 -37 q32 0 50.5 16t35.5 58h156q-15 -67 -36.5 -115.5t-42.5 -75.5t-48.5 -42t-50 -19t-52.5 -4q-46 0 -128 38t-115 38t-51.5 -17.5t-36.5 -60.5h-156z" />
<glyph unicode="&#xd6;" horiz-adv-x="1536" d="M154 588q0 82 13 166.5t42.5 172.5t72 167.5t106.5 150t142 121.5t182 81t222 30q90 0 174 -20.5t162 -68t135.5 -118t92 -177.5t34.5 -239q0 -118 -27 -238t-88.5 -237t-150 -207.5t-222 -146.5t-294.5 -56q-283 0 -439.5 168t-156.5 451zM430 596q0 -55 8.5 -105.5 t32 -102.5t60.5 -89.5t99 -61.5t142 -24q110 0 198 47.5t141 119.5t88.5 163.5t49 172t13.5 152.5q0 181 -91.5 277t-244.5 96q-101 0 -186 -43t-141 -111.5t-95 -155t-56.5 -171.5t-17.5 -164zM588 1538l59 252h258l-59 -252h-258zM1063 1538l59 252h258l-57 -252h-260z " />
<glyph unicode="&#xd7;" horiz-adv-x="1482" d="M227 342l375 305l-264 328l203 164l264 -328l379 307l133 -164l-377 -309l266 -330l-205 -165l-264 331l-375 -305z" />
<glyph unicode="&#xd8;" horiz-adv-x="1536" d="M123 70l137 139q-34 44 -57.5 105t-33 120.5t-12.5 97t-3 66.5q0 72 12.5 151t41 165.5t70 166.5t104.5 152.5t140 126.5t180.5 85.5t221.5 31.5q145 0 245 -40t181 -116l123 125l83 -84l-133 -133q105 -152 105 -377q0 -59 -9.5 -128t-34.5 -156t-62.5 -169t-100 -161 t-141 -138t-191 -95t-244.5 -36q-251 0 -409 148l-129 -131zM422 618q0 -111 35 -206l721 733q-97 108 -256 108q-101 0 -186 -42t-141.5 -108.5t-96.5 -151.5t-58 -169.5t-18 -163.5zM522 303q38 -50 107 -73t145 -23q99 0 182 41.5t139 109.5t95.5 155t57.5 176.5 t18 176.5q0 88 -27 172z" />
<glyph unicode="&#xd9;" horiz-adv-x="1409" d="M141 373q0 85 39 256l191 817h270l-186 -815q-39 -173 -39 -215q0 -100 71 -153.5t195 -53.5q81 0 141.5 22t101 66t66 100t43.5 133l211 916h273l-226 -977q-58 -251 -212.5 -375.5t-428.5 -124.5q-225 0 -367.5 110.5t-142.5 293.5zM705 1784h305l67 -244h-207z" />
<glyph unicode="&#xda;" horiz-adv-x="1409" d="M141 373q0 85 39 256l191 817h270l-186 -815q-39 -173 -39 -215q0 -100 71 -153.5t195 -53.5q81 0 141.5 22t101 66t66 100t43.5 133l211 916h273l-226 -977q-58 -251 -212.5 -375.5t-428.5 -124.5q-225 0 -367.5 110.5t-142.5 293.5zM825 1534l133 250h332l-258 -250 h-207z" />
<glyph unicode="&#xdb;" horiz-adv-x="1409" d="M141 373q0 85 39 256l191 817h270l-186 -815q-39 -173 -39 -215q0 -100 71 -153.5t195 -53.5q81 0 141.5 22t101 66t66 100t43.5 133l211 916h273l-226 -977q-58 -251 -212.5 -375.5t-428.5 -124.5q-225 0 -367.5 110.5t-142.5 293.5zM606 1540l262 250h271l145 -250 h-229l-64 133l-123 -133h-262z" />
<glyph unicode="&#xdc;" horiz-adv-x="1409" d="M141 373q0 85 39 256l191 817h270l-186 -815q-39 -173 -39 -215q0 -100 71 -153.5t195 -53.5q81 0 141.5 22t101 66t66 100t43.5 133l211 916h273l-226 -977q-58 -251 -212.5 -375.5t-428.5 -124.5q-225 0 -367.5 110.5t-142.5 293.5zM580 1538l59 252h258l-59 -252h-258 zM1055 1538l59 252h258l-57 -252h-260z" />
<glyph unicode="&#xdd;" horiz-adv-x="1236" d="M242 1446h280l197 -639l455 639h313l-670 -871l-133 -575h-274l133 575zM754 1534l133 250h332l-258 -250h-207z" />
<glyph unicode="&#xde;" horiz-adv-x="1236" d="M47 0l334 1446h272l-47 -205h121q87 0 130.5 -1t101 -7t91 -18.5t71 -35t71.5 -57.5q102 -106 102 -282q0 -128 -60.5 -254.5t-184.5 -202.5q-75 -45 -160.5 -60.5t-243.5 -15.5h-256l-70 -307h-272zM440 526h277q74 0 133 24.5t94 66t53.5 91t18.5 103.5q0 31 -9.5 60 t-32 59t-69.5 48.5t-112 18.5h-244z" />
<glyph unicode="&#xdf;" d="M39 0l233 1008q12 54 18 77.5t20 70t28 74.5t37 62.5t51 61.5q115 110 317 110q56 0 111 -9.5t111.5 -34t99 -60.5t69.5 -94.5t27 -130.5q0 -150 -87.5 -232t-256.5 -82q123 -12 202 -89t79 -226q0 -38 -5.5 -81t-21 -95.5t-39 -101.5t-62.5 -95.5t-88.5 -81 t-120.5 -55.5t-155 -21q-107 0 -217 37l47 207q70 -20 99.5 -26.5t64.5 -6.5q82 0 141 47t85 118.5t26 156.5q0 45 -10 80t-35 66.5t-75 49t-122 17.5q-32 0 -59 -4l45 186q41 -8 90 -8q29 0 56.5 4t61.5 18t59 36t42 62.5t17 94.5q0 79 -44.5 121.5t-123.5 42.5 q-21 0 -44.5 -4t-60 -23t-61.5 -51q-18 -22 -31 -54.5t-20 -58t-23 -92.5l-227 -991h-248z" />
<glyph unicode="&#xe0;" d="M57 270q0 317 424 355l213 18q88 7 137 25q15 68 15 86q0 108 -187 108q-184 0 -200 -145h-262q9 67 39.5 122t85 100.5t144 71t206.5 25.5q36 0 71 -2.5t77.5 -10t78.5 -20t71 -33.5t60 -49t40 -69.5t15 -91.5q0 -72 -38 -234l-50 -213q-34 -144 -34 -215q0 -48 12 -98 h-264q-4 32 -4 53q0 9 4 49q-27 -23 -48.5 -39t-61 -38t-91 -33.5t-111.5 -11.5q-78 0 -139.5 19t-98.5 49t-61.5 69.5t-33.5 77t-9 75.5zM313 305q0 -66 49.5 -98.5t106.5 -32.5q81 0 170 48.5t111 84.5l41 178l-299 -34q-36 -4 -64 -12t-56 -23.5t-43.5 -43.5t-15.5 -67z M457 1446h305l78 -279h-203z" />
<glyph unicode="&#xe1;" d="M57 270q0 317 424 355l213 18q88 7 137 25q15 68 15 86q0 108 -187 108q-184 0 -200 -145h-262q9 67 39.5 122t85 100.5t144 71t206.5 25.5q36 0 71 -2.5t77.5 -10t78.5 -20t71 -33.5t60 -49t40 -69.5t15 -91.5q0 -72 -38 -234l-50 -213q-34 -144 -34 -215q0 -48 12 -98 h-264q-4 32 -4 53q0 9 4 49q-27 -23 -48.5 -39t-61 -38t-91 -33.5t-111.5 -11.5q-78 0 -139.5 19t-98.5 49t-61.5 69.5t-33.5 77t-9 75.5zM313 305q0 -66 49.5 -98.5t106.5 -32.5q81 0 170 48.5t111 84.5l41 178l-299 -34q-36 -4 -64 -12t-56 -23.5t-43.5 -43.5t-15.5 -67z M578 1167l147 279h338l-266 -279h-219z" />
<glyph unicode="&#xe2;" d="M57 270q0 317 424 355l213 18q88 7 137 25q15 68 15 86q0 108 -187 108q-184 0 -200 -145h-262q9 67 39.5 122t85 100.5t144 71t206.5 25.5q36 0 71 -2.5t77.5 -10t78.5 -20t71 -33.5t60 -49t40 -69.5t15 -91.5q0 -72 -38 -234l-50 -213q-34 -144 -34 -215q0 -48 12 -98 h-264q-4 32 -4 53q0 9 4 49q-27 -23 -48.5 -39t-61 -38t-91 -33.5t-111.5 -11.5q-78 0 -139.5 19t-98.5 49t-61.5 69.5t-33.5 77t-9 75.5zM313 305q0 -66 49.5 -98.5t106.5 -32.5q81 0 170 48.5t111 84.5l41 178l-299 -34q-36 -4 -64 -12t-56 -23.5t-43.5 -43.5t-15.5 -67z M356 1169l283 277h254l149 -277h-211l-77 158l-136 -158h-262z" />
<glyph unicode="&#xe3;" d="M57 270q0 317 424 355l213 18q88 7 137 25q15 68 15 86q0 108 -187 108q-184 0 -200 -145h-262q9 67 39.5 122t85 100.5t144 71t206.5 25.5q36 0 71 -2.5t77.5 -10t78.5 -20t71 -33.5t60 -49t40 -69.5t15 -91.5q0 -72 -38 -234l-50 -213q-34 -144 -34 -215q0 -48 12 -98 h-264q-4 32 -4 53q0 9 4 49q-27 -23 -48.5 -39t-61 -38t-91 -33.5t-111.5 -11.5q-78 0 -139.5 19t-98.5 49t-61.5 69.5t-33.5 77t-9 75.5zM313 305q0 -66 49.5 -98.5t106.5 -32.5q81 0 170 48.5t111 84.5l41 178l-299 -34q-36 -4 -64 -12t-56 -23.5t-43.5 -43.5t-15.5 -67z M371 1196q21 76 50 128t62.5 77.5t63 35t63.5 9.5q38 0 114.5 -36t98.5 -36q35 0 56 15.5t34 56.5h156q-22 -78 -45 -129t-51 -77.5t-56 -36t-67 -9.5q-37 0 -120 41t-109 41q-68 0 -95 -80h-155z" />
<glyph unicode="&#xe4;" d="M57 270q0 317 424 355l213 18q88 7 137 25q15 68 15 86q0 108 -187 108q-184 0 -200 -145h-262q9 67 39.5 122t85 100.5t144 71t206.5 25.5q36 0 71 -2.5t77.5 -10t78.5 -20t71 -33.5t60 -49t40 -69.5t15 -91.5q0 -72 -38 -234l-50 -213q-34 -144 -34 -215q0 -48 12 -98 h-264q-4 32 -4 53q0 9 4 49q-27 -23 -48.5 -39t-61 -38t-91 -33.5t-111.5 -11.5q-78 0 -139.5 19t-98.5 49t-61.5 69.5t-33.5 77t-9 75.5zM313 305q0 -66 49.5 -98.5t106.5 -32.5q81 0 170 48.5t111 84.5l41 178l-299 -34q-36 -4 -64 -12t-56 -23.5t-43.5 -43.5t-15.5 -67z M348 1165l60 254h258l-58 -254h-260zM825 1165l58 254h258l-58 -254h-258z" />
<glyph unicode="&#xe5;" d="M57 270q0 317 424 355l213 18q88 7 137 25q15 68 15 86q0 108 -187 108q-184 0 -200 -145h-262q9 67 39.5 122t85 100.5t144 71t206.5 25.5q36 0 71 -2.5t77.5 -10t78.5 -20t71 -33.5t60 -49t40 -69.5t15 -91.5q0 -72 -38 -234l-50 -213q-34 -144 -34 -215q0 -48 12 -98 h-264q-4 32 -4 53q0 9 4 49q-27 -23 -48.5 -39t-61 -38t-91 -33.5t-111.5 -11.5q-78 0 -139.5 19t-98.5 49t-61.5 69.5t-33.5 77t-9 75.5zM313 305q0 -66 49.5 -98.5t106.5 -32.5q81 0 170 48.5t111 84.5l41 178l-299 -34q-36 -4 -64 -12t-56 -23.5t-43.5 -43.5t-15.5 -67z M528 1280q0 77 55 130.5t134 53.5q49 0 86.5 -18.5t58 -47.5t31 -59.5t10.5 -58.5q0 -78 -54 -135.5t-132 -57.5q-82 0 -135.5 56.5t-53.5 136.5zM625 1276q0 -36 27 -63t61 -27q40 0 66 26.5t26 67.5q0 36 -24.5 62t-63.5 26q-38 0 -65 -26t-27 -66z" />
<glyph unicode="&#xe6;" horiz-adv-x="1748" d="M51 272q0 309 457 353l301 30q4 27 4 76q0 26 -4.5 45t-20 43.5t-54.5 38.5t-99 14q-182 0 -203 -139h-260q25 146 151.5 230t315.5 84q27 0 56 -3t82 -14t103.5 -40.5t84.5 -74.5q34 29 54.5 43t65 39.5t99 37.5t119.5 12q51 0 99.5 -8t108.5 -35.5t104 -72.5t74.5 -127 t30.5 -190q0 -62 -12 -135h-702q-11 -49 -11 -78q0 -101 58.5 -164t160.5 -63q84 0 154.5 48.5t120.5 125.5l199 -121q-52 -70 -110 -120t-105 -75t-102.5 -39.5t-88.5 -17t-76 -2.5q-78 0 -142 16.5t-107.5 45.5t-70 56t-50.5 61q-171 -181 -428 -181q-162 0 -259.5 87.5 t-97.5 213.5zM303 297q0 -18 6.5 -37t22.5 -41.5t51 -36.5t84 -14q72 0 149 41q43 22 72 49.5t46.5 64t27.5 71.5t18 87l-188 -22q-40 -5 -59 -7.5t-56 -9t-56 -13.5t-45.5 -19t-39.5 -27t-23 -37t-10 -49zM1044 653h441q0 23 -3.5 46.5t-16 54.5t-32 54t-56.5 39.5 t-85 16.5q-191 0 -248 -211z" />
<glyph unicode="&#xe7;" horiz-adv-x="1093" d="M92 414q0 73 18.5 154.5t61.5 168t105 154.5t158.5 112t211.5 44q18 0 36.5 -1t58.5 -7.5t74 -17.5t76.5 -34.5t74.5 -55t58.5 -82.5t37.5 -114l-232 -78q-1 19 -3.5 36t-13 47t-28 51t-51.5 37t-80 16q-65 0 -119 -28.5t-88 -73.5t-58 -101.5t-34 -110t-10 -102.5 q0 -112 51.5 -177t151.5 -65q57 0 103 20.5t76 57.5t44 61.5t29 59.5l223 -94q-24 -55 -55.5 -100.5t-61 -75.5t-67.5 -54.5t-65.5 -37.5t-64 -24t-54 -14.5t-44.5 -7.5l-96 -129h19q76 0 115.5 -40t39.5 -87q0 -74 -82 -127t-196 -53q-94 0 -183 29l19 82q13 -6 46.5 -14.5 t63.5 -8.5q48 0 82.5 17.5t34.5 46.5q0 47 -92 47q-42 0 -74 -4l15 57l178 180q-77 7 -140.5 29t-105 51.5t-73 69t-48.5 76.5t-27 80t-13 73.5t-3 61.5z" />
<glyph unicode="&#xe8;" horiz-adv-x="1110" d="M94 420q0 80 17.5 162.5t59.5 167t103.5 149.5t159.5 106.5t217 41.5q97 0 174.5 -28.5t124 -72.5t77.5 -102t42.5 -112t11.5 -107q0 -69 -18 -148h-711q-6 -24 -6 -63q0 -45 11.5 -85t36 -75.5t69.5 -56.5t106 -21q47 0 89 15t67.5 32t52 47.5t34 43t22.5 36.5l206 -127 q-80 -123 -208 -186.5t-279 -63.5q-209 0 -334 120t-125 327zM395 657h439v29q0 28 -9 57t-28 58t-56.5 47t-87.5 18q-89 0 -156.5 -57.5t-101.5 -151.5zM416 1446h305l78 -279h-203z" />
<glyph unicode="&#xe9;" horiz-adv-x="1110" d="M94 420q0 80 17.5 162.5t59.5 167t103.5 149.5t159.5 106.5t217 41.5q97 0 174.5 -28.5t124 -72.5t77.5 -102t42.5 -112t11.5 -107q0 -69 -18 -148h-711q-6 -24 -6 -63q0 -45 11.5 -85t36 -75.5t69.5 -56.5t106 -21q47 0 89 15t67.5 32t52 47.5t34 43t22.5 36.5l206 -127 q-80 -123 -208 -186.5t-279 -63.5q-209 0 -334 120t-125 327zM395 657h439v29q0 28 -9 57t-28 58t-56.5 47t-87.5 18q-89 0 -156.5 -57.5t-101.5 -151.5zM557 1167l148 279h337l-266 -279h-219z" />
<glyph unicode="&#xea;" horiz-adv-x="1110" d="M94 420q0 80 17.5 162.5t59.5 167t103.5 149.5t159.5 106.5t217 41.5q97 0 174.5 -28.5t124 -72.5t77.5 -102t42.5 -112t11.5 -107q0 -69 -18 -148h-711q-6 -24 -6 -63q0 -45 11.5 -85t36 -75.5t69.5 -56.5t106 -21q47 0 89 15t67.5 32t52 47.5t34 43t22.5 36.5l206 -127 q-80 -123 -208 -186.5t-279 -63.5q-209 0 -334 120t-125 327zM336 1169l282 277h254l150 -277h-211l-78 158l-135 -158h-262zM395 657h439v29q0 28 -9 57t-28 58t-56.5 47t-87.5 18q-89 0 -156.5 -57.5t-101.5 -151.5z" />
<glyph unicode="&#xeb;" horiz-adv-x="1110" d="M94 420q0 80 17.5 162.5t59.5 167t103.5 149.5t159.5 106.5t217 41.5q97 0 174.5 -28.5t124 -72.5t77.5 -102t42.5 -112t11.5 -107q0 -69 -18 -148h-711q-6 -24 -6 -63q0 -45 11.5 -85t36 -75.5t69.5 -56.5t106 -21q47 0 89 15t67.5 32t52 47.5t34 43t22.5 36.5l206 -127 q-80 -123 -208 -186.5t-279 -63.5q-209 0 -334 120t-125 327zM344 1165l59 254h259l-58 -254h-260zM395 657h439v29q0 28 -9 57t-28 58t-56.5 47t-87.5 18q-89 0 -156.5 -57.5t-101.5 -151.5zM821 1165l58 254h258l-58 -254h-258z" />
<glyph unicode="&#xec;" horiz-adv-x="512" d="M39 0l237 1018h246l-235 -1018h-248zM158 1446h305l78 -279h-203z" />
<glyph unicode="&#xed;" horiz-adv-x="512" d="M39 0l237 1018h246l-235 -1018h-248zM289 1167l147 279h338l-266 -279h-219z" />
<glyph unicode="&#xee;" horiz-adv-x="512" d="M39 0l237 1018h246l-235 -1018h-248zM57 1169l283 277h254l149 -277h-211l-77 158l-136 -158h-262z" />
<glyph unicode="&#xef;" horiz-adv-x="512" d="M39 0l237 1018h246l-235 -1018h-248zM66 1165l59 254h258l-57 -254h-260zM543 1165l57 254h258l-57 -254h-258z" />
<glyph unicode="&#xf0;" d="M88 410q0 85 23.5 174t71.5 172t114 148t158 104t196 39q148 0 226 -101q-36 161 -72 228l-318 -62l-36 115l288 59q-41 53 -92 123l213 68q18 -24 32.5 -46.5t34 -54t29.5 -47.5l172 35l39 -119l-153 -31q106 -233 106 -509q0 -106 -19 -206.5t-64 -197t-112.5 -168.5 t-171.5 -116t-233 -44q-106 0 -188 35t-126.5 85t-72.5 114.5t-36.5 112.5t-8.5 90zM336 422q0 -101 51.5 -169.5t155.5 -68.5q67 0 123 29t92.5 74.5t62 104t36.5 115t11 109.5q0 66 -20.5 113t-54.5 70t-67 33t-67 10q-72 0 -130 -31.5t-93 -79t-58.5 -106.5t-32.5 -109.5 t-9 -93.5z" />
<glyph unicode="&#xf1;" d="M39 0l237 1018h232l-27 -111q56 52 137.5 90.5t180.5 38.5q26 0 51.5 -3.5t60.5 -13t64 -29.5t54.5 -49.5t40.5 -77.5t15 -109q0 -86 -30 -211l-125 -543h-250l117 506q28 119 28 178q0 139 -133 139q-214 0 -289 -319l-116 -504h-248zM399 1196q69 250 240 250 q38 0 114.5 -36t98.5 -36q35 0 56 15.5t34 56.5h156q-22 -78 -45 -129t-51 -77.5t-56 -36t-67 -9.5q-37 0 -120.5 41t-109.5 41q-67 0 -94 -80h-156z" />
<glyph unicode="&#xf2;" d="M88 412q0 64 14.5 132.5t43 141t77.5 136.5t112 115t152 80.5t193 29.5q89 0 162 -24.5t122.5 -65.5t84 -96t50 -115.5t15.5 -124.5q0 -83 -19.5 -169t-65.5 -173t-112 -154t-168 -109.5t-225 -42.5q-195 0 -315.5 119.5t-120.5 319.5zM336 420q0 -102 54 -169t155 -67 q96 0 171 62.5t113.5 159.5t38.5 208q0 47 -10.5 86t-33 72t-64 51.5t-98.5 18.5q-68 0 -125 -29.5t-93 -75t-61.5 -103.5t-36 -112t-10.5 -102zM446 1446h306l77 -279h-202z" />
<glyph unicode="&#xf3;" d="M88 412q0 64 14.5 132.5t43 141t77.5 136.5t112 115t152 80.5t193 29.5q89 0 162 -24.5t122.5 -65.5t84 -96t50 -115.5t15.5 -124.5q0 -83 -19.5 -169t-65.5 -173t-112 -154t-168 -109.5t-225 -42.5q-195 0 -315.5 119.5t-120.5 319.5zM336 420q0 -102 54 -169t155 -67 q96 0 171 62.5t113.5 159.5t38.5 208q0 47 -10.5 86t-33 72t-64 51.5t-98.5 18.5q-68 0 -125 -29.5t-93 -75t-61.5 -103.5t-36 -112t-10.5 -102zM573 1167l148 279h338l-266 -279h-220z" />
<glyph unicode="&#xf4;" d="M88 412q0 64 14.5 132.5t43 141t77.5 136.5t112 115t152 80.5t193 29.5q89 0 162 -24.5t122.5 -65.5t84 -96t50 -115.5t15.5 -124.5q0 -83 -19.5 -169t-65.5 -173t-112 -154t-168 -109.5t-225 -42.5q-195 0 -315.5 119.5t-120.5 319.5zM336 420q0 -102 54 -169t155 -67 q96 0 171 62.5t113.5 159.5t38.5 208q0 47 -10.5 86t-33 72t-64 51.5t-98.5 18.5q-68 0 -125 -29.5t-93 -75t-61.5 -103.5t-36 -112t-10.5 -102zM371 1169l282 277h254l150 -277h-211l-78 158l-135 -158h-262z" />
<glyph unicode="&#xf5;" d="M88 412q0 64 14.5 132.5t43 141t77.5 136.5t112 115t152 80.5t193 29.5q89 0 162 -24.5t122.5 -65.5t84 -96t50 -115.5t15.5 -124.5q0 -83 -19.5 -169t-65.5 -173t-112 -154t-168 -109.5t-225 -42.5q-195 0 -315.5 119.5t-120.5 319.5zM336 420q0 -102 54 -169t155 -67 q96 0 171 62.5t113.5 159.5t38.5 208q0 47 -10.5 86t-33 72t-64 51.5t-98.5 18.5q-68 0 -125 -29.5t-93 -75t-61.5 -103.5t-36 -112t-10.5 -102zM391 1196q69 250 240 250q38 0 114.5 -36t98.5 -36q35 0 56 15.5t34 56.5h156q-22 -78 -45.5 -129t-51.5 -77.5t-56 -36 t-67 -9.5q-37 0 -120 41t-109 41q-67 0 -94 -80h-156z" />
<glyph unicode="&#xf6;" d="M88 412q0 64 14.5 132.5t43 141t77.5 136.5t112 115t152 80.5t193 29.5q89 0 162 -24.5t122.5 -65.5t84 -96t50 -115.5t15.5 -124.5q0 -83 -19.5 -169t-65.5 -173t-112 -154t-168 -109.5t-225 -42.5q-195 0 -315.5 119.5t-120.5 319.5zM336 420q0 -102 54 -169t155 -67 q96 0 171 62.5t113.5 159.5t38.5 208q0 47 -10.5 86t-33 72t-64 51.5t-98.5 18.5q-68 0 -125 -29.5t-93 -75t-61.5 -103.5t-36 -112t-10.5 -102zM348 1165l60 254h258l-58 -254h-260zM825 1165l58 254h258l-58 -254h-258z" />
<glyph unicode="&#xf7;" horiz-adv-x="1482" d="M193 526l53 228h1157l-53 -228h-1157zM553 137l61 262h265l-60 -262h-266zM723 877l61 264h265l-60 -264h-266z" />
<glyph unicode="&#xf8;" d="M43 74l115 100q-68 86 -68 254q0 35 5.5 76.5t20 101.5t48 127t82.5 125q52 61 115 102t124.5 58t103 23t81.5 6q204 0 325 -127l99 86l69 -84l-106 -95q51 -84 51 -233q0 -119 -38.5 -229.5t-108.5 -198t-180 -140.5t-242 -53q-203 0 -316 113l-108 -94zM319 438 q0 -52 17 -106l491 438q-20 23 -32 34.5t-50 26.5t-88 15q-88 0 -166 -54t-122 -135q-50 -89 -50 -219zM389 233q10 -20 47 -41.5t99 -21.5q83 0 151 37.5t109.5 98t63.5 133.5t22 149q0 43 -9 76z" />
<glyph unicode="&#xf9;" d="M115 248q0 68 39 244l122 526h246l-114 -498q-35 -149 -35 -201q0 -51 34.5 -90t100.5 -39q53 0 96.5 19t74 50t55 78.5t40.5 96.5t31 113l110 471h246l-235 -1018h-228l25 109q-133 -127 -301 -127q-132 0 -219.5 68.5t-87.5 197.5zM477 1446h305l78 -279h-203z" />
<glyph unicode="&#xfa;" d="M115 248q0 68 39 244l122 526h246l-114 -498q-35 -149 -35 -201q0 -51 34.5 -90t100.5 -39q53 0 96.5 19t74 50t55 78.5t40.5 96.5t31 113l110 471h246l-235 -1018h-228l25 109q-133 -127 -301 -127q-132 0 -219.5 68.5t-87.5 197.5zM600 1167l148 279h337l-266 -279 h-219z" />
<glyph unicode="&#xfb;" d="M115 248q0 68 39 244l122 526h246l-114 -498q-35 -149 -35 -201q0 -51 34.5 -90t100.5 -39q53 0 96.5 19t74 50t55 78.5t40.5 96.5t31 113l110 471h246l-235 -1018h-228l25 109q-133 -127 -301 -127q-132 0 -219.5 68.5t-87.5 197.5zM379 1169l283 277h253l150 -277h-211 l-78 158l-135 -158h-262z" />
<glyph unicode="&#xfc;" d="M115 248q0 68 39 244l122 526h246l-114 -498q-35 -149 -35 -201q0 -51 34.5 -90t100.5 -39q53 0 96.5 19t74 50t55 78.5t40.5 96.5t31 113l110 471h246l-235 -1018h-228l25 109q-133 -127 -301 -127q-132 0 -219.5 68.5t-87.5 197.5zM367 1165l59 254h258l-57 -254h-260z M844 1165l57 254h258l-57 -254h-258z" />
<glyph unicode="&#xfd;" horiz-adv-x="937" d="M-94 -350l49 219q48 -12 104 -12q54 0 90 26t62 84l-94 1051h250l26 -793l404 793h260l-580 -1051q-2 -3 -6 -10q-81 -150 -127 -205q-92 -110 -225 -120q-14 -1 -29 -1q-58 0 -184 19zM514 1167l148 279h337l-266 -279h-219z" />
<glyph unicode="&#xfe;" horiz-adv-x="1193" d="M-43 -369l420 1815h241l-124 -539q55 75 132 107.5t154 32.5q50 0 99 -12.5t100 -43.5t89 -78t62.5 -123.5t24.5 -171.5q0 -87 -20.5 -175.5t-64.5 -173.5t-106.5 -150.5t-154 -105.5t-199.5 -40q-208 0 -295 150l-112 -492h-246zM391 420q0 -69 21.5 -118t57 -72 t69.5 -32.5t71 -9.5q121 0 208 124t87 300q0 102 -53.5 166t-155.5 64q-54 0 -99.5 -19t-76.5 -48.5t-55 -69.5t-37.5 -80t-22 -81.5t-11.5 -71t-3 -52.5z" />
<glyph unicode="&#xff;" horiz-adv-x="937" d="M-94 -350l49 219q48 -12 104 -12q54 0 90 26t62 84l-94 1051h250l26 -793l404 793h260l-580 -1051q-2 -3 -6 -10q-81 -150 -127 -205q-92 -110 -225 -120q-14 -1 -29 -1q-58 0 -184 19zM242 1165l59 254h258l-57 -254h-260zM719 1165l57 254h258l-57 -254h-258z" />
<glyph unicode="&#x152;" horiz-adv-x="2174" d="M156 557q0 132 33 262.5t100.5 249t161 209.5t225 145t282.5 54q129 0 207 -27t193 -109l24 105h922l-55 -236h-643l-80 -354h604l-53 -233h-607l-88 -383h750l-55 -240h-1004l19 86q-50 -31 -88 -50t-120 -40t-173 -21q-86 0 -163.5 18.5t-150 62t-125.5 108.5 t-84.5 166t-31.5 227zM436 575q0 -52 10 -101t34.5 -99t62 -87t97 -60t134.5 -23q80 0 150 27.5t121 73.5t93 107.5t69 127.5t45 135.5t26 129.5t8 112q0 20 -1.5 39.5t-8.5 55.5t-19 66.5t-36.5 65.5t-57.5 59t-85 40t-117 16q-95 0 -180 -41t-147 -110.5t-107.5 -158 t-68 -185t-22.5 -190.5z" />
<glyph unicode="&#x153;" horiz-adv-x="1835" d="M92 424q0 94 25.5 185.5t75 170t117 138.5t157.5 94.5t190 34.5q30 0 65.5 -6t87.5 -23.5t103 -60t86 -103.5q40 47 68.5 74t75 58.5t106 46t135.5 14.5q19 0 36 -1t50 -5.5t60.5 -12.5t63 -24t64 -38t57 -57t48 -78.5t31.5 -104t12 -132.5q0 -56 -8 -115h-715 q-8 -43 -8 -94q0 -94 64.5 -153.5t165.5 -59.5q88 0 151.5 47.5t116.5 128.5l194 -104q-101 -149 -218 -210t-267 -61q-122 0 -224 52.5t-143 150.5q-148 -203 -387 -203q-90 0 -167 26.5t-138 79.5t-96 141.5t-35 203.5zM330 422q0 -104 52.5 -172t154.5 -68q66 0 121.5 28 t91.5 73t61 102t36 113.5t11 109.5q0 107 -54 169.5t-151 62.5q-71 0 -129 -32.5t-93 -81t-59 -108t-33 -108.5t-9 -88zM1118 649h449v13q0 20 -2.5 40t-13.5 49.5t-30 51t-56 37.5t-87 16q-193 0 -260 -207z" />
<glyph unicode="&#x178;" horiz-adv-x="1236" d="M242 1446h280l197 -639l455 639h313l-670 -871l-133 -575h-274l133 575zM512 1538l59 252h258l-59 -252h-258zM987 1538l60 252h258l-58 -252h-260z" />
<glyph unicode="&#x2c6;" horiz-adv-x="555" d="M-66 1169l283 277h254l150 -277h-211l-78 158l-135 -158h-263z" />
<glyph unicode="&#x2dc;" horiz-adv-x="555" d="M-72 1196q69 250 240 250q38 0 114.5 -36t98.5 -36q35 0 56 15.5t34 56.5h156q-22 -78 -45 -129t-51 -77.5t-56 -36t-67 -9.5q-37 0 -120.5 41t-109.5 41q-67 0 -94 -80h-156z" />
<glyph unicode="&#x2000;" horiz-adv-x="945" />
<glyph unicode="&#x2001;" horiz-adv-x="1890" />
<glyph unicode="&#x2002;" horiz-adv-x="945" />
<glyph unicode="&#x2003;" horiz-adv-x="1890" />
<glyph unicode="&#x2004;" horiz-adv-x="630" />
<glyph unicode="&#x2005;" horiz-adv-x="472" />
<glyph unicode="&#x2006;" horiz-adv-x="315" />
<glyph unicode="&#x2007;" horiz-adv-x="315" />
<glyph unicode="&#x2008;" horiz-adv-x="236" />
<glyph unicode="&#x2009;" horiz-adv-x="378" />
<glyph unicode="&#x200a;" horiz-adv-x="105" />
<glyph unicode="&#x2010;" horiz-adv-x="761" d="M113 508l53 231h592l-53 -231h-592z" />
<glyph unicode="&#x2011;" horiz-adv-x="761" d="M113 508l53 231h592l-53 -231h-592z" />
<glyph unicode="&#x2012;" horiz-adv-x="761" d="M113 508l53 231h592l-53 -231h-592z" />
<glyph unicode="&#x2013;" horiz-adv-x="1249" d="M113 506l53 231h1081l-53 -231h-1081z" />
<glyph unicode="&#x2014;" horiz-adv-x="1828" d="M113 508l53 231h1661l-53 -231h-1661z" />
<glyph unicode="&#x2018;" horiz-adv-x="512" d="M233 879l64 276q23 98 40.5 142t55.5 81q73 68 176 68q26 0 49 -2l-28 -129q-63 -6 -87 -38.5t-44 -121.5h110l-63 -276h-273z" />
<glyph unicode="&#x2019;" horiz-adv-x="512" d="M246 881l30 129q61 6 85.5 38t46.5 121h-111l63 277h271l-64 -277q-23 -101 -40 -143.5t-56 -79.5q-70 -67 -176 -67q-29 0 -49 2z" />
<glyph unicode="&#x201a;" horiz-adv-x="512" d="M-25 -289l31 129q63 6 86.5 39t44.5 121h-110l63 276h270l-63 -276q-23 -101 -40 -143.5t-56 -79.5q-71 -68 -176 -68q-27 0 -50 2z" />
<glyph unicode="&#x201c;" horiz-adv-x="894" d="M227 879l66 276q23 101 39.5 143.5t54.5 79.5q73 68 176 68q26 0 49 -2l-28 -129q-62 -6 -86.5 -39t-44.5 -121h110l-63 -276h-273zM610 879l64 276q23 101 40 143.5t56 79.5q73 68 176 68q26 0 49 -2l-30 -129q-61 -6 -85 -38.5t-46 -121.5h110l-63 -276h-271z" />
<glyph unicode="&#x201d;" horiz-adv-x="894" d="M246 881l30 129q61 6 85.5 38t46.5 121h-111l63 277h271l-64 -277q-23 -101 -40 -143.5t-56 -79.5q-70 -67 -176 -67q-29 0 -49 2zM627 881l30 129q61 6 85 38t46 121h-110l63 277h271l-64 -277q-23 -101 -40 -143.5t-56 -79.5q-70 -67 -176 -67q-29 0 -49 2z" />
<glyph unicode="&#x201e;" horiz-adv-x="894" d="M-23 -289l29 129q63 6 86.5 39t44.5 121h-110l65 276h270l-63 -276q-22 -96 -40.5 -141t-55.5 -82q-73 -68 -176 -68q-30 0 -50 2zM358 -289l31 129q63 6 86.5 39t44.5 121h-110l63 276h270l-63 -276q-23 -101 -40 -143.5t-56 -79.5q-71 -68 -176 -68q-27 0 -50 2z" />
<glyph unicode="&#x2022;" horiz-adv-x="681" d="M150 494l106 460h465l-105 -460h-466z" />
<glyph unicode="&#x2026;" horiz-adv-x="2048" d="M139 0l51 227h232l-53 -227h-230zM823 0l51 227h232l-53 -227h-230zM1505 0l54 227h229l-53 -227h-230z" />
<glyph unicode="&#x202f;" horiz-adv-x="378" />
<glyph unicode="&#x2039;" horiz-adv-x="468" d="M82 489l55 240l395 254l-65 -287l-197 -102l146 -117l-58 -248z" />
<glyph unicode="&#x203a;" horiz-adv-x="468" d="M20 229l66 287l197 102l-146 117l58 248l276 -262l-55 -238z" />
<glyph unicode="&#x205f;" horiz-adv-x="472" />
<glyph unicode="&#x20ac;" horiz-adv-x="1484" d="M51 522l90 150h117q1 16 6 44.5t6 33.5h-172l88 149h121q103 264 277 391t452 127q165 0 278 -46t218 -163l-129 -217q-79 106 -169 155.5t-216 49.5q-292 0 -420 -297h756l-86 -149h-719q-6 -29 -10 -78h682l-84 -150h-602q42 -332 401 -332q113 0 223 45t197 123 l-72 -301q-175 -88 -397 -88q-141 0 -254 32t-198 97.5t-132 172.5t-51 251h-201z" />
<glyph unicode="&#x2122;" horiz-adv-x="1406" d="M213 1327l29 119h520l-27 -119h-180l-129 -561h-147l129 561h-195zM690 766l158 680h213q6 -420 6 -477l227 477h215l-155 -680h-135l127 539l-269 -539h-119l-12 547l-119 -547h-137z" />
<glyph unicode="&#x25fc;" horiz-adv-x="1013" d="M0 0v1014h1014v-1014h-1014z" />
</font>
</defs>
</svg>
